<svg width="1053" height="739" viewBox="0 0 1053 739" fill="none" xmlns="http://www.w3.org/2000/svg">
<g clip-path="url(#clip0_474_2)">
<path d="M508.5 21C275.738 30.4266 202 23.1666 157 81.4999C34.6334 248.654 -85.2879 442.509 83.4998 629.5C134.5 686 187.5 753.5 385.5 736.5C583.5 719.5 618.695 688.5 816.195 711C1013.69 733.5 972.89 459.5 1037.89 312.5C1102.89 165.5 950.391 21 820.695 21C573.5 21 669 14.5 508.5 21Z" fill="#CBDAFF" fill-opacity="0.3"/>
<path d="M198.772 239.42C226.269 227.724 260.517 235.134 293.963 240.277C294.275 234.049 298.047 226.469 294.095 222.124C289.294 216.845 289.736 211.299 292.625 205.72C300.013 191.455 289.428 176.277 278.741 163.656C276.332 160.818 273.288 158.587 269.855 157.147C266.423 155.706 262.699 155.095 258.986 155.364L239.188 156.778C234.371 157.122 229.773 158.929 226.011 161.958C222.248 164.986 219.501 169.092 218.135 173.724V173.724C213.408 180.153 210.878 186.565 212.471 192.943C205.39 197.782 204.201 203.623 207.382 210.207C210.08 214.353 210.052 218.389 207.26 222.313C203.593 227.316 200.784 232.894 198.949 238.819L198.772 239.42Z" fill="#2F2E41"/>
<path d="M852.209 593.963H291.791C286.807 593.963 282.028 591.983 278.504 588.459C274.98 584.935 273 580.156 273 575.172C476.151 551.562 675.485 551.562 871 575.172C871 580.156 869.02 584.935 865.496 588.459C861.972 591.983 857.193 593.963 852.209 593.963Z" fill="#2F2E41"/>
<path d="M871 576.277L273 575.172L342.306 458.556L342.638 458.004V200.996C342.637 197.877 343.252 194.788 344.445 191.906C345.639 189.024 347.389 186.405 349.595 184.199C351.8 181.993 354.419 180.243 357.301 179.05C360.183 177.856 363.272 177.242 366.392 177.242H774.292C777.412 177.242 780.501 177.856 783.383 179.05C786.265 180.243 788.883 181.993 791.089 184.199C793.295 186.405 795.045 189.024 796.239 191.906C797.432 194.788 798.046 197.877 798.046 200.996V459.772L871 576.277Z" fill="#3F3D56"/>
<path d="M365.85 193.823C363.799 193.825 361.832 194.641 360.382 196.091C358.931 197.542 358.115 199.509 358.113 201.56V435.896C358.115 437.948 358.931 439.915 360.382 441.365C361.832 442.816 363.799 443.632 365.85 443.634H778.15C780.201 443.632 782.168 442.816 783.618 441.365C785.069 439.914 785.885 437.948 785.887 435.896V201.56C785.885 199.509 785.069 197.542 783.618 196.091C782.168 194.641 780.201 193.825 778.15 193.823H365.85Z" fill="#141414"/>
<path d="M367.578 474.584C366.944 474.585 366.324 474.767 365.79 475.109C365.256 475.451 364.831 475.939 364.565 476.514L343.21 522.939C342.977 523.445 342.876 524 342.914 524.555C342.953 525.11 343.13 525.646 343.43 526.114C343.73 526.582 344.143 526.968 344.631 527.235C345.119 527.502 345.666 527.641 346.222 527.641H795.314C795.879 527.641 796.435 527.497 796.929 527.222C797.423 526.946 797.838 526.549 798.135 526.069C798.432 525.588 798.601 525.039 798.627 524.474C798.652 523.91 798.532 523.348 798.279 522.842L775.067 476.417C774.793 475.865 774.37 475.401 773.846 475.077C773.322 474.753 772.718 474.582 772.102 474.584H367.578Z" fill="#2F2E41"/>
<path d="M570.342 189.954C573.089 189.954 575.316 187.727 575.316 184.98C575.316 182.233 573.089 180.006 570.342 180.006C567.595 180.006 565.368 182.233 565.368 184.98C565.368 187.727 567.595 189.954 570.342 189.954Z" fill="#373737"/>
<path d="M526.2 536.484C525.471 536.485 524.763 536.726 524.184 537.169C523.605 537.613 523.189 538.234 522.998 538.938L517.642 558.834C517.509 559.326 517.492 559.841 517.59 560.341C517.689 560.84 517.902 561.31 518.211 561.714C518.521 562.118 518.919 562.445 519.376 562.67C519.832 562.896 520.334 563.013 520.843 563.013H622.717C623.246 563.013 623.767 562.887 624.237 562.644C624.707 562.402 625.112 562.051 625.418 561.62C625.725 561.189 625.924 560.692 625.999 560.168C626.074 559.645 626.023 559.111 625.85 558.612L618.963 538.715C618.737 538.064 618.314 537.499 617.752 537.099C617.191 536.7 616.519 536.485 615.829 536.484H526.2Z" fill="#2F2E41"/>
<path d="M798.046 454.135V458.556H342.306L342.649 458.004V454.135H798.046Z" fill="#2F2E41"/>
<path d="M785.335 271.75C828.068 271.75 862.71 237.108 862.71 194.375C862.71 151.642 828.068 117 785.335 117C742.602 117 707.959 151.642 707.959 194.375C707.959 237.108 742.602 271.75 785.335 271.75Z" fill="#2B2B2B"/>
<path d="M817.39 228.089H753.279C752.107 228.088 750.983 227.621 750.154 226.792C749.325 225.964 748.859 224.84 748.857 223.667V184.98C748.859 183.807 749.325 182.684 750.154 181.855C750.983 181.026 752.107 180.559 753.279 180.558H817.39C818.562 180.559 819.686 181.026 820.515 181.855C821.344 182.684 821.81 183.807 821.811 184.98V223.667C821.81 224.84 821.344 225.964 820.515 226.792C819.686 227.621 818.562 228.088 817.39 228.089ZM753.279 184.98V223.667H817.393L817.39 184.98L753.279 184.98Z" fill="white"/>
<path d="M805.231 184.98H765.438V167.294C765.438 154.484 773.806 145.187 785.334 145.187C796.863 145.187 805.231 154.484 805.231 167.294L805.231 184.98ZM769.859 180.558H800.81V167.294C800.81 156.881 794.446 149.608 785.335 149.608C776.223 149.608 769.859 156.881 769.859 167.294L769.859 180.558Z" fill="white"/>
<path d="M785.335 207.64C787.776 207.64 789.756 205.66 789.756 203.218C789.756 200.776 787.776 198.797 785.335 198.797C782.893 198.797 780.913 200.776 780.913 203.218C780.913 205.66 782.893 207.64 785.335 207.64Z" fill="white"/>
<path d="M731.32 364.149H412.68C411.116 364.148 409.616 363.525 408.51 362.419C407.403 361.313 406.781 359.813 406.779 358.249V279.208C406.781 277.643 407.403 276.144 408.51 275.037C409.616 273.931 411.116 273.309 412.68 273.307H731.32C732.884 273.309 734.384 273.931 735.49 275.037C736.596 276.144 737.219 277.643 737.221 279.208V358.249C737.219 359.813 736.596 361.313 735.49 362.419C734.384 363.525 732.884 364.148 731.32 364.149V364.149ZM412.68 275.667C411.741 275.668 410.841 276.042 410.178 276.705C409.514 277.369 409.141 278.269 409.14 279.208V358.249C409.141 359.187 409.514 360.087 410.178 360.751C410.841 361.415 411.741 361.788 412.68 361.789H731.32C732.259 361.788 733.158 361.415 733.822 360.751C734.486 360.087 734.859 359.187 734.86 358.249V279.208C734.859 278.269 734.486 277.369 733.822 276.705C733.158 276.042 732.259 275.668 731.32 275.667L412.68 275.667Z" fill="white"/>
<path d="M462.19 339.732C475.465 339.732 486.227 328.97 486.227 315.695C486.227 302.42 475.465 291.659 462.19 291.659C448.915 291.659 438.154 302.42 438.154 315.695C438.154 328.97 448.915 339.732 462.19 339.732Z" fill="white"/>
<path d="M517.703 299.671C517.176 299.67 516.655 299.773 516.168 299.974C515.681 300.175 515.239 300.47 514.866 300.842C514.493 301.214 514.198 301.656 513.996 302.143C513.794 302.629 513.69 303.151 513.69 303.677C513.69 304.204 513.794 304.725 513.996 305.212C514.198 305.698 514.493 306.14 514.866 306.512C515.239 306.884 515.681 307.179 516.168 307.38C516.655 307.581 517.176 307.684 517.703 307.683H706.561C707.623 307.683 708.642 307.261 709.393 306.51C710.145 305.759 710.567 304.74 710.567 303.677C710.567 302.615 710.145 301.596 709.393 300.844C708.642 300.093 707.623 299.671 706.561 299.671H517.703Z" fill="white"/>
<path d="M517.703 323.708C516.64 323.708 515.621 324.13 514.87 324.881C514.119 325.632 513.697 326.651 513.697 327.714C513.697 328.776 514.119 329.795 514.87 330.546C515.621 331.298 516.64 331.72 517.703 331.72H598.969C600.031 331.72 601.05 331.298 601.802 330.546C602.553 329.795 602.975 328.776 602.975 327.714C602.975 326.651 602.553 325.632 601.802 324.881C601.05 324.13 600.031 323.708 598.969 323.708H517.703Z" fill="white"/>
<path d="M341.522 325.328L282.619 356.644L281.873 330.547C301.099 327.338 319.39 321.75 336.302 312.653L342.463 297.433C343.134 295.774 344.225 294.319 345.629 293.209C347.033 292.1 348.701 291.375 350.469 291.105C352.238 290.834 354.046 291.029 355.717 291.669C357.388 292.309 358.864 293.372 359.999 294.755V294.755C361.661 296.778 362.492 299.356 362.323 301.969C362.154 304.581 360.999 307.031 359.091 308.824L341.522 325.328Z" fill="#FFB8B8"/>
<path d="M197.598 506.133C197.168 504.557 197.077 502.908 197.33 501.294C197.584 499.68 198.176 498.138 199.067 496.77L212.007 476.912C215.067 472.215 219.763 468.823 225.184 467.393C230.604 465.962 236.363 466.597 241.342 469.173V469.173C235.904 478.429 236.662 486.549 243.22 493.606C233.039 498.576 223.63 504.991 215.284 512.651C213.76 513.69 212.01 514.35 210.18 514.575C208.35 514.801 206.492 514.586 204.762 513.948C203.031 513.31 201.479 512.268 200.232 510.909C198.986 509.549 198.083 507.912 197.598 506.133V506.133Z" fill="#2F2E41"/>
<path d="M344.205 480.168C342.247 483.432 339.483 486.137 336.178 488.025C332.874 489.912 329.139 490.919 325.334 490.948L239.374 491.599L235.646 469.976L273.672 458.792L241.61 434.187L276.654 393.179L340.304 452.503C344.024 455.97 346.441 460.61 347.151 465.645C347.861 470.681 346.821 475.808 344.205 480.168V480.168Z" fill="#2F2E41"/>
<path d="M225.953 628.045H205.821C187.746 504.147 169.348 379.903 223.716 333.53L287.838 343.968L279.637 398.398L243.847 439.406L225.953 628.045Z" fill="#2F2E41"/>
<path d="M243.649 656.112C242.073 656.542 240.424 656.633 238.81 656.38C237.196 656.127 235.655 655.535 234.286 654.643L212.427 651.705C207.73 648.645 204.338 643.949 202.907 638.529C201.477 633.108 202.111 627.35 204.686 622.37C213.943 627.808 222.063 627.049 229.12 620.491C234.106 630.558 242.321 629.944 250.166 638.426C251.205 639.949 251.865 641.699 252.091 643.529C252.316 645.36 252.101 647.217 251.464 648.948C250.826 650.678 249.784 652.231 248.425 653.477C247.066 654.723 245.428 655.626 243.649 656.112V656.112Z" fill="#2F2E41"/>
<path d="M273.672 250.767L236.391 241.82C242.583 229.146 243.093 215.044 240.119 200.066L265.47 199.32C266.264 217.946 268.667 235.347 273.672 250.767Z" fill="#FFB8B8"/>
<path d="M283.917 366.418C256.779 384.911 237.603 367.051 222.97 339.495C225.003 322.633 221.711 302.454 215.613 280.528C212.901 270.858 213.914 260.521 218.451 251.561C222.988 242.6 230.719 235.666 240.119 232.127V232.127L272.18 245.548C299.404 267.739 304.762 291.775 294.548 317.127L283.917 366.418Z" fill="#2B2B2B"/>
<path d="M205.821 269.408L175.997 285.065L228.935 316.381L236.301 334.55C236.793 335.763 237.032 337.063 237.005 338.372C236.978 339.68 236.684 340.969 236.143 342.16C235.601 343.351 234.822 344.42 233.854 345.3C232.886 346.181 231.749 346.855 230.512 347.281V347.281C229.106 347.766 227.606 347.919 226.131 347.728C224.656 347.536 223.245 347.006 222.009 346.179C220.773 345.351 219.745 344.249 219.006 342.957C218.268 341.666 217.838 340.222 217.75 338.737L217.005 326.074L149.722 303.87C147.455 303.122 145.388 301.868 143.677 300.203C141.967 298.537 140.658 296.505 139.849 294.259V294.259C138.67 290.985 138.61 287.412 139.678 284.101C140.746 280.789 142.882 277.925 145.752 275.956L199.856 238.838L205.821 269.408Z" fill="#FFB8B8"/>
<path d="M235.646 272.39C223.207 266.939 211.896 272.86 197.62 277.609L195.383 238.092C209.559 230.536 223.075 228.499 235.646 234.364L235.646 272.39Z" fill="#2B2B2B"/>
<path d="M250.525 218.895C263.67 218.895 274.327 208.238 274.327 195.093C274.327 181.947 263.67 171.29 250.525 171.29C237.379 171.29 226.723 181.947 226.723 195.093C226.723 208.238 237.379 218.895 250.525 218.895Z" fill="#FFB8B8"/>
<path d="M279 192.089C255.434 194.397 237.477 190.543 226 179.569V170.732H277L279 192.089Z" fill="#2F2E41"/>
</g>
<defs>
<clipPath id="clip0_474_2">
<rect width="1053" height="739" fill="white"/>
</clipPath>
</defs>
</svg>
