<svg width="487" height="357" viewBox="0 0 487 357" fill="none" xmlns="http://www.w3.org/2000/svg">
<g clip-path="url(#clip0_422_31)">
<path opacity="0.24" d="M152.792 55.2882C118.906 81.6094 71.3616 92.7943 44.5588 125.271C36.9469 134.601 31.4417 145.229 28.3655 156.534C25.2894 167.838 24.7042 179.592 26.6441 191.106C30.055 210.687 40.7869 229.183 40.6179 249.01C40.4335 270.394 27.5122 291.129 31.3993 312.217C37.1071 343.49 77.6994 359.852 112.061 356.591C146.423 353.33 177.359 336.609 209.939 326.079C237.94 317.044 267.432 312.505 297.116 312.661C325.739 312.823 354.194 317.352 382.817 317.162C411.441 316.972 441.447 311.372 463.057 294.165C484.666 276.958 494.738 245.833 479.88 223.372C466.352 202.946 436.438 193.945 426.72 171.779C420.452 157.488 424.3 141.401 424.039 125.997C423.394 86.7933 392.289 49.6323 351.167 38.9123C331.962 33.8974 311.55 34.2495 291.907 30.8053C264.121 25.9242 245.814 -4.47508 220.225 0.560949C194.536 5.65333 171.867 40.4829 152.792 55.2882Z" fill="#3F8FFE"/>
<path d="M325.98 278.862H370.775C374.43 278.862 377.394 275.777 377.394 271.972V159.504C377.394 155.699 374.43 152.614 370.775 152.614H325.98C322.324 152.614 319.361 155.699 319.361 159.504V271.972C319.361 275.777 322.324 278.862 325.98 278.862Z" fill="#231F20"/>
<path d="M370.775 152.608C371.644 152.608 372.505 152.786 373.308 153.133C374.111 153.479 374.84 153.986 375.455 154.626C376.07 155.266 376.557 156.026 376.89 156.862C377.223 157.698 377.394 158.594 377.394 159.499V271.966C377.394 272.871 377.223 273.767 376.89 274.603C376.557 275.439 376.07 276.199 375.455 276.839C374.84 277.478 374.111 277.986 373.308 278.332C372.505 278.678 371.644 278.857 370.775 278.857H325.98C324.224 278.857 322.541 278.131 321.3 276.839C320.058 275.546 319.361 273.794 319.361 271.966V159.499C319.361 157.671 320.058 155.919 321.3 154.626C322.541 153.334 324.224 152.608 325.98 152.608H370.775ZM370.775 152.038H325.98C324.08 152.039 322.259 152.826 320.916 154.225C319.573 155.624 318.818 157.521 318.818 159.499V271.966C318.82 273.943 319.575 275.839 320.917 277.238C322.26 278.637 324.081 279.424 325.98 279.427H370.775C372.675 279.424 374.496 278.637 375.839 277.239C377.183 275.84 377.939 273.944 377.942 271.966V159.499C377.939 157.521 377.183 155.626 375.839 154.228C374.495 152.831 372.674 152.045 370.775 152.043V152.038Z" fill="#231F20"/>
<path d="M377.898 174.529L378.665 174.249V168.637L377.898 168.357V174.529Z" fill="#231F20"/>
<path d="M377.898 174.814C377.862 174.815 377.826 174.808 377.792 174.794C377.759 174.78 377.728 174.759 377.702 174.732C377.677 174.706 377.657 174.674 377.643 174.639C377.63 174.604 377.623 174.567 377.624 174.529V168.357C377.624 168.312 377.635 168.267 377.655 168.226C377.675 168.186 377.704 168.15 377.739 168.123C377.775 168.098 377.816 168.082 377.858 168.076C377.901 168.07 377.945 168.075 377.985 168.089L378.758 168.369C378.811 168.388 378.857 168.425 378.889 168.473C378.922 168.521 378.939 168.578 378.939 168.637V174.249C378.939 174.308 378.922 174.365 378.889 174.413C378.857 174.461 378.811 174.498 378.758 174.518L377.985 174.797C377.958 174.809 377.928 174.815 377.898 174.814ZM378.172 168.756V174.124L378.396 174.038V168.842L378.172 168.756Z" fill="#231F20"/>
<path d="M319.12 196.324L318.347 195.6V181.072L319.12 180.341V196.324Z" fill="#231F20"/>
<path d="M319.12 196.609C319.086 196.611 319.051 196.605 319.019 196.592C318.988 196.579 318.958 196.56 318.934 196.535L318.166 195.799C318.138 195.773 318.114 195.741 318.098 195.704C318.082 195.668 318.074 195.628 318.073 195.588V181.072C318.073 181.031 318.081 180.992 318.097 180.955C318.113 180.919 318.137 180.886 318.166 180.86L318.934 180.13C318.974 180.094 319.023 180.071 319.075 180.063C319.127 180.055 319.181 180.062 319.229 180.085C319.277 180.107 319.317 180.143 319.346 180.188C319.374 180.234 319.389 180.287 319.388 180.341V196.313C319.389 196.368 319.374 196.422 319.346 196.468C319.318 196.515 319.277 196.552 319.229 196.575C319.196 196.594 319.158 196.606 319.12 196.609ZM318.621 195.469L318.846 195.68V180.969L318.627 181.197L318.621 195.469Z" fill="#231F20"/>
<path d="M377.898 189.291L378.665 188.989V180.41L377.898 180.102V189.291Z" fill="#231F20"/>
<path d="M377.898 189.576C377.843 189.577 377.789 189.559 377.745 189.525C377.707 189.499 377.677 189.465 377.656 189.424C377.635 189.383 377.624 189.337 377.624 189.291V180.102C377.625 180.056 377.636 180.011 377.657 179.97C377.678 179.93 377.708 179.895 377.744 179.869C377.781 179.844 377.823 179.827 377.867 179.822C377.911 179.817 377.955 179.823 377.997 179.839L378.764 180.142C378.815 180.163 378.859 180.2 378.891 180.248C378.922 180.296 378.939 180.352 378.939 180.41V188.966C378.938 189.023 378.921 189.078 378.89 189.125C378.859 189.172 378.815 189.208 378.764 189.228L377.997 189.536C377.966 189.555 377.933 189.569 377.898 189.576ZM378.172 180.518V188.88L378.397 188.789V180.604L378.172 180.518Z" fill="#231F20"/>
<path d="M377.898 200.665L378.665 200.363V191.784L377.898 191.476V200.665Z" fill="#231F20"/>
<path d="M377.898 200.933C377.843 200.934 377.789 200.916 377.745 200.882C377.707 200.856 377.677 200.822 377.656 200.781C377.635 200.74 377.624 200.694 377.624 200.648V191.476C377.625 191.43 377.636 191.385 377.657 191.344C377.678 191.304 377.708 191.269 377.744 191.243C377.781 191.218 377.823 191.201 377.867 191.196C377.911 191.191 377.955 191.197 377.997 191.213L378.764 191.516C378.815 191.537 378.859 191.574 378.891 191.622C378.922 191.67 378.939 191.726 378.939 191.784V200.34C378.938 200.397 378.921 200.452 378.89 200.499C378.859 200.546 378.815 200.582 378.764 200.602L377.997 200.905C377.966 200.922 377.933 200.932 377.898 200.933ZM378.172 191.875V200.237L378.397 200.146V191.978L378.172 191.875Z" fill="#231F20"/>
<path d="M377.898 191.476H378.281V189.291H377.898V191.476Z" fill="#231F20"/>
<path d="M378.282 189.006H377.898C377.747 189.006 377.624 189.134 377.624 189.291V191.476C377.624 191.633 377.747 191.761 377.898 191.761H378.282C378.433 191.761 378.556 191.633 378.556 191.476V189.291C378.556 189.134 378.433 189.006 378.282 189.006Z" fill="#231F20"/>
<path d="M329.821 158.198H329.816C327.101 158.198 324.901 160.489 324.901 163.315V176.143C324.901 178.969 327.101 181.26 329.816 181.26H329.821C332.536 181.26 334.736 178.969 334.736 176.143V163.315C334.736 160.489 332.536 158.198 329.821 158.198Z" fill="#231F20"/>
<path d="M329.816 181.539C328.446 181.53 327.134 180.958 326.168 179.947C325.201 178.937 324.657 177.569 324.654 176.143V163.32C324.654 161.888 325.201 160.514 326.174 159.501C327.147 158.488 328.467 157.919 329.843 157.919C331.219 157.919 332.539 158.488 333.512 159.501C334.485 160.514 335.032 161.888 335.032 163.32V176.143C335.031 176.854 334.895 177.558 334.631 178.214C334.368 178.871 333.984 179.466 333.499 179.968C333.015 180.469 332.44 180.866 331.808 181.135C331.176 181.405 330.499 181.542 329.816 181.539ZM329.816 158.478C328.588 158.487 327.414 159.001 326.549 159.908C325.685 160.816 325.201 162.042 325.202 163.32V176.143C325.202 177.429 325.693 178.662 326.566 179.572C327.44 180.481 328.624 180.992 329.86 180.992C331.095 180.992 332.279 180.481 333.153 179.572C334.026 178.662 334.517 177.429 334.517 176.143V163.32C334.516 162.681 334.394 162.047 334.157 161.457C333.92 160.867 333.572 160.331 333.135 159.881C332.698 159.432 332.18 159.077 331.61 158.837C331.04 158.597 330.43 158.477 329.816 158.483V158.478Z" fill="white"/>
<path d="M329.63 165.003C330.764 165.003 331.684 164.045 331.684 162.864C331.684 161.683 330.764 160.725 329.63 160.725C328.495 160.725 327.575 161.683 327.575 162.864C327.575 164.045 328.495 165.003 329.63 165.003Z" fill="#231F20"/>
<path d="M329.629 165.288C329.169 165.288 328.718 165.146 328.336 164.88C327.953 164.613 327.654 164.235 327.478 163.792C327.302 163.349 327.255 162.861 327.345 162.391C327.435 161.921 327.657 161.489 327.983 161.15C328.308 160.811 328.723 160.58 329.175 160.486C329.627 160.393 330.095 160.441 330.52 160.624C330.946 160.808 331.31 161.119 331.566 161.517C331.821 161.916 331.958 162.385 331.958 162.864C331.958 163.507 331.713 164.124 331.276 164.578C330.839 165.033 330.247 165.288 329.629 165.288ZM329.629 161.01C329.276 161.009 328.929 161.117 328.635 161.321C328.34 161.525 328.11 161.815 327.975 162.156C327.839 162.496 327.803 162.87 327.872 163.231C327.94 163.592 328.111 163.924 328.361 164.185C328.611 164.445 328.93 164.622 329.277 164.694C329.624 164.765 329.983 164.728 330.31 164.587C330.637 164.445 330.916 164.206 331.111 163.899C331.307 163.593 331.411 163.232 331.41 162.864C331.41 162.372 331.223 161.9 330.889 161.551C330.555 161.203 330.102 161.006 329.629 161.005V161.01Z" fill="white"/>
<path d="M329.63 170.776C330.764 170.776 331.684 169.818 331.684 168.637C331.684 167.455 330.764 166.498 329.63 166.498C328.495 166.498 327.575 167.455 327.575 168.637C327.575 169.818 328.495 170.776 329.63 170.776Z" fill="#3F8FFE"/>
<path d="M329.629 171.061C329.169 171.061 328.718 170.919 328.336 170.652C327.953 170.386 327.654 170.007 327.478 169.564C327.302 169.121 327.255 168.634 327.345 168.164C327.435 167.693 327.657 167.261 327.983 166.922C328.308 166.583 328.723 166.353 329.175 166.259C329.627 166.165 330.095 166.213 330.52 166.397C330.946 166.58 331.31 166.891 331.566 167.29C331.821 167.688 331.958 168.157 331.958 168.637C331.957 169.279 331.711 169.895 331.274 170.349C330.838 170.803 330.246 171.059 329.629 171.061ZM329.629 166.783C329.277 166.783 328.933 166.892 328.64 167.095C328.347 167.299 328.119 167.588 327.984 167.927C327.849 168.266 327.814 168.639 327.883 168.998C327.951 169.358 328.121 169.688 328.37 169.947C328.619 170.207 328.936 170.383 329.282 170.455C329.627 170.526 329.985 170.49 330.311 170.349C330.636 170.209 330.914 169.971 331.11 169.667C331.306 169.362 331.41 169.003 331.41 168.637C331.409 168.145 331.221 167.675 330.887 167.327C330.553 166.98 330.101 166.784 329.629 166.783Z" fill="#3F8FFE"/>
<path d="M329.63 176.548C330.764 176.548 331.684 175.591 331.684 174.409C331.684 173.228 330.764 172.27 329.63 172.27C328.495 172.27 327.575 173.228 327.575 174.409C327.575 175.591 328.495 176.548 329.63 176.548Z" fill="#231F20"/>
<path d="M329.629 176.833C329.169 176.833 328.718 176.691 328.336 176.425C327.953 176.158 327.654 175.78 327.478 175.337C327.302 174.894 327.255 174.406 327.345 173.936C327.435 173.466 327.657 173.034 327.983 172.695C328.308 172.356 328.723 172.125 329.175 172.031C329.627 171.938 330.095 171.986 330.52 172.169C330.946 172.353 331.31 172.664 331.566 173.062C331.821 173.461 331.958 173.93 331.958 174.409C331.957 175.052 331.711 175.667 331.274 176.122C330.838 176.576 330.246 176.832 329.629 176.833ZM329.629 172.555C329.277 172.555 328.933 172.664 328.64 172.868C328.347 173.071 328.119 173.361 327.984 173.7C327.849 174.038 327.814 174.411 327.883 174.771C327.951 175.13 328.121 175.461 328.37 175.72C328.619 175.979 328.936 176.156 329.282 176.227C329.627 176.299 329.985 176.262 330.311 176.122C330.636 175.982 330.914 175.744 331.11 175.439C331.306 175.134 331.41 174.776 331.41 174.409C331.41 173.917 331.223 173.446 330.889 173.098C330.555 172.751 330.102 172.555 329.629 172.555Z" fill="white"/>
<path d="M50.2312 237.892C50.2312 237.892 47.2575 241.992 54.6846 245.563C62.1117 249.134 232.029 287.658 232.029 287.658C236.688 287.836 241.334 287.068 245.677 285.404C253.104 282.629 398.262 245.957 398.262 245.957C398.262 245.957 401.904 244.549 402.515 243.576C403.125 242.604 402.515 237.814 402.515 237.814L50.2312 237.892Z" fill="#3F8FFE"/>
<path d="M50.2312 237.892C50.2312 237.892 47.2575 241.992 54.6846 245.563C62.1117 249.134 232.029 287.658 232.029 287.658C236.688 287.836 241.334 287.068 245.677 285.404C253.104 282.629 398.262 245.957 398.262 245.957C398.262 245.957 401.904 244.549 402.515 243.576C403.125 242.604 402.515 237.814 402.515 237.814L50.2312 237.892Z" fill="url(#paint0_linear_422_31)"/>
<path d="M232.604 287.412C229.86 287.736 227.174 286.658 224.574 285.749C216.981 283.101 208.822 281.685 201.969 277.522C201.634 277.36 201.377 277.077 201.251 276.733C201.208 276.46 201.269 276.182 201.423 275.951C202.142 274.641 203.772 274.098 205.28 273.922C209.59 273.408 213.864 274.923 218.116 275.838C220.795 276.423 223.518 276.768 226.175 277.451C227.698 277.839 231.922 278.592 232.827 279.924C233.171 280.487 232.841 287.412 232.604 287.412Z" fill="url(#paint1_linear_422_31)"/>
<path d="M257.967 212.209L398.873 237.624L232.324 279.712L257.967 212.209Z" fill="#3F8FFE"/>
<path d="M250.683 237.885L324.372 251.388L233.416 276.578L250.683 237.885Z" fill="#3F8FFE"/>
<path d="M250.683 237.885L324.372 251.388L233.416 276.578L250.683 237.885Z" fill="url(#paint2_linear_422_31)"/>
<path d="M338.407 226.769L279.02 240.273L252.026 235.504L262.283 213.266L338.407 226.769Z" fill="url(#paint3_linear_422_31)"/>
<path d="M57.493 242.957L221.356 282.403C223.74 282.977 226.253 282.708 228.455 281.643C230.657 280.579 232.406 278.788 233.394 276.585L317.872 87.2054C318.362 86.1082 318.576 84.9112 318.495 83.7157C318.415 82.5203 318.041 81.3615 317.407 80.3375C316.773 79.3134 315.897 78.4542 314.852 77.8326C313.808 77.2109 312.626 76.8451 311.407 76.7661L133.99 65.2279C131.875 65.0902 129.767 65.5873 127.946 66.653C126.125 67.7187 124.679 69.3027 123.798 71.1943L50.5328 228.763C49.8942 230.13 49.5704 231.618 49.5847 233.121C49.5989 234.625 49.9508 236.107 50.6153 237.462C51.2798 238.817 52.2405 240.012 53.4293 240.962C54.618 241.911 56.0055 242.592 57.493 242.957Z" fill="#3F8FFE"/>
<path d="M57.493 242.957L221.356 282.403C223.74 282.977 226.253 282.708 228.455 281.643C230.657 280.579 232.406 278.788 233.394 276.585L317.872 87.2054C318.362 86.1082 318.576 84.9112 318.495 83.7157C318.415 82.5203 318.041 81.3615 317.407 80.3375C316.773 79.3134 315.897 78.4542 314.852 77.8326C313.808 77.2109 312.626 76.8451 311.407 76.7661L133.99 65.2279C131.875 65.0902 129.767 65.5873 127.946 66.653C126.125 67.7187 124.679 69.3027 123.798 71.1943L50.5328 228.763C49.8942 230.13 49.5704 231.618 49.5847 233.121C49.5989 234.625 49.9508 236.107 50.6153 237.462C51.2798 238.817 52.2405 240.012 53.4293 240.962C54.618 241.911 56.0055 242.592 57.493 242.957Z" fill="url(#paint4_linear_422_31)"/>
<path d="M243.055 280.375L251.287 277.994L251.15 279.98L243.055 282.291V280.375Z" fill="url(#paint5_linear_422_31)"/>
<path d="M257.155 276.733L265.394 274.352L265.257 276.338L257.155 278.656V276.733Z" fill="url(#paint6_linear_422_31)"/>
</g>
<defs>
<linearGradient id="paint0_linear_422_31" x1="225.852" y1="237.068" x2="243.519" y2="384.337" gradientUnits="userSpaceOnUse">
<stop stop-color="#010101" stop-opacity="0"/>
<stop offset="0.95" stop-color="#010101"/>
</linearGradient>
<linearGradient id="paint1_linear_422_31" x1="201.201" y1="280.67" x2="232.963" y2="280.67" gradientUnits="userSpaceOnUse">
<stop stop-color="#010101" stop-opacity="0"/>
<stop offset="0.95" stop-color="#010101"/>
</linearGradient>
<linearGradient id="paint2_linear_422_31" x1="125.845" y1="273.965" x2="594.334" y2="203.834" gradientUnits="userSpaceOnUse">
<stop stop-color="#010101" stop-opacity="0"/>
<stop offset="0.95" stop-color="#010101"/>
</linearGradient>
<linearGradient id="paint3_linear_422_31" x1="231.771" y1="221.557" x2="741.045" y2="292.522" gradientUnits="userSpaceOnUse">
<stop stop-color="#010101" stop-opacity="0"/>
<stop offset="0.95" stop-color="#010101"/>
</linearGradient>
<linearGradient id="paint4_linear_422_31" x1="113.835" y1="146.051" x2="377.333" y2="206.217" gradientUnits="userSpaceOnUse">
<stop stop-color="white" stop-opacity="0"/>
<stop offset="0.95" stop-color="white" stop-opacity="0.4"/>
</linearGradient>
<linearGradient id="paint5_linear_422_31" x1="247.171" y1="268.069" x2="247.171" y2="289.243" gradientUnits="userSpaceOnUse">
<stop stop-color="#010101" stop-opacity="0"/>
<stop offset="0.95" stop-color="#010101"/>
</linearGradient>
<linearGradient id="paint6_linear_422_31" x1="261.278" y1="264.427" x2="261.278" y2="285.601" gradientUnits="userSpaceOnUse">
<stop stop-color="#010101" stop-opacity="0"/>
<stop offset="0.95" stop-color="#010101"/>
</linearGradient>
<clipPath id="clip0_422_31">
<rect width="487" height="357" fill="white"/>
</clipPath>
</defs>
</svg>
