<svg width="627" height="423" viewBox="0 0 627 423" fill="none" xmlns="http://www.w3.org/2000/svg">
<g id="Car_Isometric 1" clip-path="url(#clip0_404_93)">
<g id="Vector #1">
<path id="Vector" d="M579.993 179.735L382.057 64.7101C380.637 63.8908 379.026 63.4595 377.386 63.4595C375.747 63.4595 374.136 63.8908 372.716 64.7101L76.7119 234.06C75.2807 234.876 74.091 236.056 73.2634 237.48C72.4359 238.904 72 240.521 72 242.168C72 243.814 72.4359 245.432 73.2634 246.856C74.091 248.279 75.2807 249.459 76.7119 250.275L266.001 359.486C270.645 362.164 275.912 363.573 281.274 363.573C286.635 363.573 291.902 362.164 296.546 359.486L579.966 195.95C581.399 195.136 582.591 193.958 583.421 192.536C584.25 191.113 584.689 189.497 584.692 187.85C584.694 186.203 584.261 184.585 583.436 183.16C582.611 181.735 581.423 180.553 579.993 179.735Z" fill="#454545"/>
<path id="Vector_2" d="M314.669 126.217C313.997 125.827 313.43 125.279 313.017 124.621C312.603 123.964 312.357 123.215 312.298 122.441C312.238 121.667 312.369 120.889 312.677 120.177C312.986 119.464 313.463 118.837 314.068 118.349C314.909 117.669 315.616 117.096 315.99 116.856C324.927 111.355 334.516 106.987 344.533 103.855L361.467 98.5207L368.14 99.2941C353.514 110.781 338.054 121.166 321.888 130.364L314.669 126.217Z" fill="url(#paint0_linear_404_93)"/>
<path id="Vector_3" d="M287.954 129.724C287.47 129.441 287.062 129.046 286.764 128.571C286.467 128.096 286.289 127.557 286.246 126.999C286.202 126.44 286.295 125.88 286.516 125.365C286.737 124.851 287.079 124.397 287.513 124.043C288.127 123.55 288.634 123.136 288.848 122.963C295.323 119.005 302.266 115.87 309.518 113.629C313.601 112.295 319.553 110.189 323.636 108.922L326.585 110.389C316.036 118.688 304.885 126.194 293.225 132.844L287.954 129.724Z" fill="url(#paint1_linear_404_93)"/>
<path id="Vector_4" d="M463.031 238.041C462.359 237.651 461.792 237.104 461.379 236.446C460.965 235.788 460.719 235.04 460.66 234.265C460.601 233.491 460.731 232.714 461.039 232.001C461.348 231.288 461.825 230.661 462.43 230.174C463.271 229.494 463.978 228.92 464.352 228.68C473.306 223.175 482.913 218.808 492.949 215.679L509.883 210.345L516.555 211.119C501.929 222.605 486.469 232.99 470.304 242.188L463.031 238.041Z" fill="url(#paint2_linear_404_93)"/>
<path id="Vector_5" d="M244.647 346.222L234.57 340.382L547.123 159.219L557.905 165.513L244.647 346.222Z" fill="white"/>
<path id="Vector_6" d="M109.102 266.723L99.095 260.949L413.398 81.5274L420.623 86.0444L109.102 266.723Z" fill="white"/>
<g id="car">
<path id="Vector_7" d="M136.188 283.406L226.543 231.721L311.133 181.342L345.307 161.34L416.94 218.546L218.536 331.157L136.188 283.406Z" fill="url(#paint3_linear_404_93)"/>
<path id="Vector_8" d="M210.57 222.453L219.524 207.372C229.332 199.717 253.565 181.689 253.565 181.689C260.571 172.888 279.867 153.686 279.867 153.686C293.585 143.605 344.814 116.349 348.67 115.882C352.527 115.416 365.951 118.403 368.019 118.549C370.088 118.696 376.359 114.469 376.359 114.469C394.961 116.002 413.15 131.244 421.837 137.845C424.418 139.885 426.539 142.448 428.061 145.363C429.583 148.279 430.472 151.483 430.671 154.766C430.671 154.766 431.592 186.609 431.058 188.29C430.524 189.97 425.373 193.623 425.373 193.623C425.373 193.623 425.547 175.675 412.549 182.036C399.552 188.396 396.736 210.545 395.535 211.679C394.334 212.812 330.802 249.536 316.737 257.67C316.87 253.669 316.363 249.589 313.361 246.722C309.865 243.388 304.714 243.828 300.577 245.509C296.365 247.141 292.745 250.009 290.195 253.736C286.459 258.337 284.657 264.404 283.763 270.151C283.656 270.871 283.269 280.819 283.109 280.819C248.841 292.033 210.863 250.923 210.103 247.709C209.342 244.495 210.57 222.453 210.57 222.453Z" fill="#3F8FFE"/>
<path id="Vector_9" opacity="0.33" d="M210.503 222.493L219.457 207.412C229.265 199.757 253.499 181.729 253.499 181.729C260.504 172.928 279.8 153.726 279.8 153.726C293.518 143.645 344.747 116.389 348.604 115.922C352.46 115.456 365.885 118.443 367.953 118.589C370.021 118.736 376.293 114.509 376.293 114.509C394.895 116.042 413.083 131.284 421.771 137.885C424.352 139.925 426.472 142.488 427.995 145.403C429.517 148.319 430.406 151.523 430.605 154.806C430.605 154.806 431.525 186.649 430.992 188.33C430.458 190.01 425.307 193.663 425.307 193.663C425.307 193.663 425.48 175.715 412.483 182.076C399.486 188.436 396.697 210.559 395.496 211.719C394.295 212.879 330.762 249.576 316.697 257.71C316.831 253.709 316.324 249.629 313.321 246.762C309.825 243.428 304.674 243.868 300.537 245.549C296.325 247.181 292.706 250.049 290.156 253.776C286.419 258.377 284.618 264.444 283.724 270.191C283.617 270.911 283.23 280.859 283.07 280.859C248.802 292.073 210.824 250.963 210.063 247.749C209.302 244.535 210.503 222.493 210.503 222.493Z" fill="#2E2E75"/>
<path id="Vector_10" opacity="0.33" d="M237.552 252.043C250.362 260.163 263.533 263.724 285.858 260.75C285.458 262.337 283.99 268.604 283.737 270.178C283.63 270.898 283.243 280.846 283.083 280.846C248.815 292.06 210.837 250.949 210.076 247.736C209.382 244.762 210.37 225.76 210.53 222.813C216.681 235.574 218.203 239.788 237.552 252.043Z" fill="#2E2E75"/>
<path id="Vector_11" d="M223.033 244.562C223.033 244.562 222.847 249.709 222.94 249.802C228.855 254.874 235.557 258.95 242.783 261.87L242.876 256.856C242.876 256.856 230.987 251.069 223.033 244.562Z" fill="white"/>
<path id="Vector_12" d="M284.484 154.94C281.815 152.393 258.062 178.795 256.568 182.356C255.073 185.916 252.871 188.196 257.796 193.664C262.72 199.131 290.542 215.412 296.067 216.759C301.592 218.106 304.594 221.04 312.08 214.199C319.566 207.358 330.816 185.009 330.816 185.009C330.816 185.009 297.962 167.901 284.484 154.94Z" fill="#E2E2E2"/>
<path id="Vector_13" d="M258.075 177.008C258.075 177.008 252.818 172.568 249.268 174.168C245.719 175.768 253.552 181.756 253.552 181.756L258.075 177.008Z" fill="#1F1971"/>
<path id="Vector_14" d="M253.218 257.243C252.222 256.958 251.308 256.442 250.549 255.736C249.215 254.27 250.136 252.363 251.19 251.016C252.219 249.729 253.67 248.846 255.287 248.522C258.522 247.685 261.801 247.026 265.108 246.549C267.31 246.229 269.525 245.962 271.78 245.802C274.174 245.492 276.6 245.519 278.986 245.882C281.482 246.415 280.894 249.629 280.027 251.296C278.423 253.959 276.114 256.128 273.355 257.563C271.421 258.659 269.272 259.318 267.056 259.497C264.694 259.599 262.328 259.416 260.011 258.95C258.295 258.664 256.601 258.263 254.94 257.75C254.366 257.603 253.792 257.443 253.218 257.243Z" fill="#E2E2E2"/>
<path id="Vector_15" d="M210.57 222.453C210.57 222.453 214.72 230.587 217.162 232.654C219.604 234.721 220.778 233.321 221.085 231.254C221.392 229.187 219.857 207.385 219.511 207.385C219.164 207.385 213.145 210.345 210.57 222.453Z" fill="#E2E2E2"/>
<path id="Vector_16" d="M225.956 229.307C226.69 229.654 227.504 230.347 228.078 230.64C232.214 233.147 236.338 235.681 240.448 238.241L246.613 242.068C247.947 242.908 250.963 243.922 249.629 245.922C248.183 247.958 246.453 249.777 244.491 251.323C243.157 252.469 242.036 252.829 240.381 251.856C237.365 250.096 234.349 248.362 231.347 246.522C229.038 245.189 226.396 243.442 225.676 240.655C224.904 237.754 224.386 234.791 224.128 231.801C224.048 230.801 223.874 228.72 225.462 228.987C225.64 229.072 225.806 229.18 225.956 229.307V229.307Z" fill="#E2E2E2"/>
<path id="Vector_17" d="M263.066 272.391C263.582 272.544 264.035 272.856 264.361 273.282C264.687 273.709 264.87 274.228 264.881 274.765C264.881 277.312 262.559 277.192 260.771 277.258C258.543 277.352 238.513 270.591 225.476 260.377C212.438 250.162 210.196 241.508 210.196 241.508L210.316 234.841C210.316 234.841 213.506 248.696 230.6 258.843C237.64 263.021 245.073 266.501 252.791 269.231C255.193 270.084 257.609 270.858 260.064 271.538C261.082 271.756 262.085 272.042 263.066 272.391V272.391Z" fill="#E2E2E2"/>
<path id="Vector_18" d="M396.296 146.685L410.508 147.566C410.508 147.566 412.549 148.339 411.348 144.899C410.147 141.458 396.403 127.47 378.121 123.243C378.121 123.243 352.767 118.869 357.477 120.67C360.133 121.683 380.777 131.431 396.296 146.685Z" fill="#E2E2E2"/>
<path id="Vector_19" d="M395.509 169.954C400.153 166.674 404.85 163.407 409.361 160.033C406.779 158.636 403.96 157.732 401.047 157.367C399.27 157.255 397.487 157.255 395.709 157.367L395.509 169.954Z" fill="#E2E2E2"/>
<path id="Vector_20" d="M364.256 166.527C354.149 171.406 345.085 178.199 337.568 186.529C329.945 195.374 323.922 205.477 319.766 216.386C319.611 216.791 319.586 217.235 319.696 217.656C319.805 218.076 320.044 218.452 320.378 218.73C320.712 219.008 321.125 219.174 321.558 219.206C321.992 219.237 322.425 219.133 322.796 218.906C330.735 213.959 346.455 204.118 357.784 196.837L360.627 195.01V194.81L363.803 192.543L364.256 166.527Z" fill="#E2E2E2"/>
<path id="Vector_21" d="M391.305 157.727C387.159 158.311 383.069 159.248 379.082 160.527C376.213 161.434 373.357 162.5 370.542 163.674L370.088 188.076L389.998 173.848L391.012 173.128L391.305 157.727Z" fill="#E2E2E2"/>
<g id="wheels">
<path id="Vector_22" d="M425.353 207.928C430.626 197.028 428.99 185.336 421.698 181.813C414.405 178.291 404.219 184.271 398.946 195.172C393.673 206.072 395.309 217.764 402.601 221.287C409.893 224.81 420.08 218.829 425.353 207.928Z" fill="#2F2F2F"/>
<path id="Vector_23" d="M420.779 205.112C423.647 199.184 422.755 192.825 418.787 190.908C414.819 188.991 409.278 192.243 406.41 198.17C403.543 204.098 404.435 210.457 408.403 212.374C412.371 214.291 417.912 211.039 420.779 205.112Z" fill="#DDDDDD"/>
<path id="Vector_24" d="M313.784 271.062C319.237 259.79 317.692 247.771 310.334 244.217C302.975 240.662 292.589 246.918 287.137 258.19C281.684 269.461 283.228 281.48 290.587 285.035C297.945 288.59 308.331 282.334 313.784 271.062Z" fill="#232323"/>
<path id="Vector_25" d="M309.031 268.131C311.999 261.998 311.16 255.459 307.159 253.526C303.158 251.593 297.509 254.998 294.542 261.132C291.575 267.265 292.414 273.803 296.415 275.736C300.416 277.669 306.064 274.264 309.031 268.131Z" fill="#DDDDDD"/>
</g>
<path id="Vector_26" d="M299.95 217.893L297.415 165.301L291.984 161.234L294.439 216.452L299.95 217.893Z" fill="white"/>
<path id="Vector_27" d="M280.708 156.42L284.244 211.119L273.969 205.131L272.741 163.594L280.708 156.42Z" fill="white"/>
<g id="Vector 2">
<path d="M345.187 127.22L367.09 141.5L367.09 147.872L361.528 151.21L337.445 135.337L339.828 130.178L345.187 127.22Z" fill="#F19204"/>
<path d="M339.828 130.178L361.727 144.418M339.828 130.178L345.187 127.22L367.09 141.5M339.828 130.178L337.445 135.337L361.528 151.21M361.727 144.418L367.09 141.5M361.727 144.418L361.528 151.21M367.09 141.5L367.09 147.872L361.528 151.21" stroke="black" stroke-opacity="0.13"/>
</g>
</g>
<path id="Vector_28" d="M366.538 46.0088H361.628C360.699 46.0088 359.946 46.7611 359.946 47.689V99.1074C359.946 100.035 360.699 100.788 361.628 100.788H366.538C367.467 100.788 368.22 100.035 368.22 99.1074V47.689C368.22 46.7611 367.467 46.0088 366.538 46.0088Z" fill="#BC532A"/>
<path id="Vector_29" d="M384.486 57.2233C382.578 48.9558 374.118 12.5388 359.132 23.2466C351.446 28.7271 349.271 37.3013 346.188 45.6888C343.639 52.6361 341.531 59.9435 341.411 67.3843C341.144 82.5324 356.543 84.386 368.366 84.3326C375.172 84.3326 384.887 80.3322 386.475 72.9048C387.435 68.451 385.794 63.1972 384.847 58.8368C384.731 58.2945 384.611 57.7566 384.486 57.2233Z" fill="#2C9135"/>
<path id="Vector_30" d="M385.207 58.8234C385.091 58.29 384.971 57.7522 384.847 57.2099C383.165 49.9025 376.346 20.5796 364.403 21.2997C367.953 36.7546 373.17 53.0895 370.381 68.9044C369.492 74.4308 367.331 79.6755 364.07 84.2259C365.658 84.306 367.219 84.3326 368.727 84.3193C375.532 84.3193 385.247 80.3189 386.835 72.8915C387.796 68.4377 386.168 63.1839 385.207 58.8234Z" fill="#156819"/>
<path id="Vector_31" d="M325.665 77.6386H324.037C323.108 77.6386 322.355 78.3909 322.355 79.3188V109.055C322.355 109.983 323.108 110.735 324.037 110.735H325.665C326.593 110.735 327.346 109.983 327.346 109.055V79.3188C327.346 78.3909 326.593 77.6386 325.665 77.6386Z" fill="#BC532A"/>
<path id="Vector_32" d="M337.181 84.4126C336.033 79.4255 330.909 57.4099 321.848 63.8773C317.204 67.1842 315.883 72.3714 314.028 77.4386C312.351 81.6182 311.386 86.0487 311.173 90.5466C311.026 99.7075 320.34 100.828 327.479 100.788C331.589 100.788 337.461 98.3474 338.422 93.8802C338.996 91.2133 338.008 88.013 337.434 85.3861L337.181 84.4126Z" fill="#2C9135"/>
<path id="Vector_33" d="M337.621 85.3727L337.408 84.3993C336.394 79.9855 332.27 62.2638 325.064 62.7038C327.199 72.0381 330.402 81.9057 328.68 91.4667C328.142 94.8049 326.835 97.9727 324.864 100.721C325.825 100.721 326.772 100.721 327.68 100.721C331.79 100.721 337.661 98.2807 338.622 93.8136C339.196 91.1866 338.195 88.013 337.621 85.3727Z" fill="#156819"/>
<path id="Vector_34" d="M132.409 275.297L166.038 255.893L155.216 249.635L121.628 269.105L132.409 275.297Z" fill="white"/>
<path id="Vector_35" d="M152.891 287.417L186.52 268.026L175.698 261.754L142.11 281.225L152.891 287.417Z" fill="white"/>
<path id="Vector_36" d="M170.981 297.901L204.609 278.511L193.774 272.239L160.199 291.709L170.981 297.901Z" fill="white"/>
<path id="Vector_37" d="M190.355 309.996L223.97 290.606L213.148 284.334L179.573 303.804L190.355 309.996Z" fill="white"/>
<path id="Vector_38" d="M209.806 320.984L243.435 301.581L232.613 295.322L199.025 314.792L209.806 320.984Z" fill="white"/>
<path id="Vector_39" d="M230.036 333.745L263.664 314.354L252.842 308.082L219.254 327.552L230.036 333.745Z" fill="white"/>
<path id="Vector_40" d="M515.421 161.474H511.204C510.275 161.474 509.523 162.226 509.523 163.154V210.012C509.523 210.94 510.275 211.692 511.204 211.692H515.421C516.349 211.692 517.102 210.94 517.102 210.012V163.154C517.102 162.226 516.349 161.474 515.421 161.474Z" fill="#BC532A"/>
<path id="Vector_41" d="M532.021 171.741C530.273 164.167 522.507 130.764 508.749 140.578C501.703 145.605 499.701 153.473 496.885 161.154C494.331 167.483 492.852 174.193 492.509 181.009C492.282 194.904 506.427 196.597 517.249 196.557C523.494 196.557 532.395 192.85 533.849 186.076C534.73 181.996 533.235 177.182 532.355 173.182C532.248 172.719 532.137 172.239 532.021 171.741Z" fill="#2C9135"/>
<path id="Vector_42" d="M532.688 173.221C532.582 172.733 532.47 172.239 532.355 171.741C530.807 165.074 524.562 138.151 513.673 138.805C516.929 152.979 521.679 167.954 519.157 182.462C518.339 187.527 516.357 192.334 513.366 196.504C514.82 196.57 516.248 196.597 517.636 196.597C523.881 196.597 532.782 192.89 534.236 186.116C535.05 182.036 533.556 177.222 532.688 173.221Z" fill="#156819"/>
<path id="Vector 3" d="M332.5 138.5L337.5 135L362 151.5L356 155L332.5 138.5Z" fill="#3D3D3D" fill-opacity="0.2"/>
</g>
<path id="Vector 1" d="M198.5 404.5C318.5 458 472.99 383.147 544.699 305.442C595.011 260.862 693.5 150.733 559 59.2331C314.809 -106.889 74.6494 122.006 20.0001 190.733C-34.6492 259.461 19.3725 324.639 198.5 404.5Z" fill="url(#paint4_linear_404_93)" fill-opacity="0.12"/>
</g>
<defs>
<linearGradient id="paint0_linear_404_93" x1="323.316" y1="122.043" x2="358.1" y2="96.3631" gradientUnits="userSpaceOnUse">
<stop stop-color="#454545"/>
<stop offset="1" stop-color="#373737"/>
</linearGradient>
<linearGradient id="paint1_linear_404_93" x1="294.199" y1="126.71" x2="319.327" y2="108.158" gradientUnits="userSpaceOnUse">
<stop stop-color="#454545"/>
<stop offset="1" stop-color="#3C3C3C"/>
</linearGradient>
<linearGradient id="paint2_linear_404_93" x1="471.678" y1="233.867" x2="506.449" y2="208.188" gradientUnits="userSpaceOnUse">
<stop stop-color="#454545"/>
<stop offset="1" stop-color="#3A3A3A"/>
</linearGradient>
<linearGradient id="paint3_linear_404_93" x1="205.392" y1="303.434" x2="360.121" y2="189.223" gradientUnits="userSpaceOnUse">
<stop stop-color="#424242"/>
<stop offset="1" stop-color="#292929"/>
</linearGradient>
<linearGradient id="paint4_linear_404_93" x1="53" y1="333.5" x2="560.5" y2="40.5" gradientUnits="userSpaceOnUse">
<stop stop-color="#3F8FFE"/>
<stop offset="1" stop-color="#060ED5"/>
</linearGradient>
<clipPath id="clip0_404_93">
<rect width="627" height="423" fill="white"/>
</clipPath>
</defs>
</svg>
