<svg width="512" height="176" viewBox="0 0 512 176" fill="none" xmlns="http://www.w3.org/2000/svg">
<g clip-path="url(#clip0_503_184)">
<path d="M388.414 -0.274902H256C251.125 -0.274902 247.172 3.67809 247.172 8.55309V26.2081H406.069V17.3801C406.069 7.6291 398.165 -0.274902 388.414 -0.274902Z" fill="#8ABBFF"/>
<path d="M229.517 8.552H114.759C109.884 8.552 105.931 12.505 105.931 17.38V26.208H238.345V17.38C238.345 12.505 234.392 8.552 229.517 8.552Z" fill="#8ABBFF"/>
<path d="M8.828 17.3799H487.264C491.402 17.3799 494.984 20.2529 495.882 24.2919L511.79 95.8779C511.93 96.5069 512.001 97.1489 512.001 97.7939V149.794C512.001 154.669 508.048 158.622 503.173 158.622H141.24L8.277 150.312C3.625 150.02 0 146.162 0 141.5V26.2069C0 21.3319 3.953 17.3799 8.828 17.3799Z" fill="#3F8FFE"/>
<path d="M22.0691 96.8279H511.028C511.34 96.4379 511.477 96.2669 511.789 95.8789L498.268 35.0349H22.0681C19.6301 35.0349 17.6541 37.0109 17.6541 39.4489V92.4139C17.6551 94.8519 19.6311 96.8279 22.0691 96.8279Z" fill="#625D6B"/>
<path d="M8.277 150.311L141.24 158.621H503.172C508.047 158.621 512 154.668 512 149.793V132.138H0V141.5C0 146.162 3.625 150.02 8.277 150.311Z" fill="#8ABBFF"/>
<path d="M132.414 176.277C147.04 176.277 158.897 164.42 158.897 149.794C158.897 135.168 147.04 123.311 132.414 123.311C117.788 123.311 105.931 135.168 105.931 149.794C105.931 164.42 117.788 176.277 132.414 176.277Z" fill="#504B5A"/>
<path d="M132.414 163.035C139.727 163.035 145.655 157.107 145.655 149.794C145.655 142.481 139.727 136.553 132.414 136.553C125.101 136.553 119.173 142.481 119.173 149.794C119.173 157.107 125.101 163.035 132.414 163.035Z" fill="#DCDBDE"/>
<path d="M388.414 176.277C403.04 176.277 414.897 164.42 414.897 149.794C414.897 135.168 403.04 123.311 388.414 123.311C373.788 123.311 361.931 135.168 361.931 149.794C361.931 164.42 373.788 176.277 388.414 176.277Z" fill="#504B5A"/>
<path d="M388.414 163.035C395.727 163.035 401.655 157.107 401.655 149.794C401.655 142.481 395.727 136.553 388.414 136.553C381.101 136.553 375.173 142.481 375.173 149.794C375.173 157.107 381.101 163.035 388.414 163.035Z" fill="#DCDBDE"/>
<path d="M432.552 43.863H476.69C481.565 43.863 485.518 47.816 485.518 52.691V149.794C485.518 154.669 481.565 158.622 476.69 158.622H432.552C427.677 158.622 423.724 154.669 423.724 149.794V52.69C423.724 47.815 427.677 43.863 432.552 43.863Z" fill="#504B5A"/>
<path d="M203.034 43.863H247.172C252.047 43.863 256 47.816 256 52.691V149.794C256 154.669 252.047 158.622 247.172 158.622H203.034C198.159 158.622 194.206 154.669 194.206 149.794V52.69C194.207 47.815 198.159 43.863 203.034 43.863Z" fill="#504B5A"/>
<path d="M216.276 140.966H207.448C205.01 140.966 203.034 138.99 203.034 136.552V65.9311C203.034 63.4931 205.01 61.5171 207.448 61.5171H216.276C218.714 61.5171 220.69 63.4931 220.69 65.9311V136.552C220.69 138.99 218.713 140.966 216.276 140.966Z" fill="#625D6B"/>
<path d="M242.759 140.966H233.931C231.493 140.966 229.517 138.99 229.517 136.552V65.9311C229.517 63.4931 231.493 61.5171 233.931 61.5171H242.759C245.197 61.5171 247.173 63.4931 247.173 65.9311V136.552C247.172 138.99 245.196 140.966 242.759 140.966Z" fill="#625D6B"/>
<path d="M445.793 140.966H436.965C434.527 140.966 432.551 138.99 432.551 136.552V65.9311C432.551 63.4931 434.527 61.5171 436.965 61.5171H445.793C448.231 61.5171 450.207 63.4931 450.207 65.9311V136.552C450.207 138.99 448.231 140.966 445.793 140.966Z" fill="#625D6B"/>
<path d="M472.276 140.966H463.448C461.01 140.966 459.034 138.99 459.034 136.552V65.9311C459.034 63.4931 461.01 61.5171 463.448 61.5171H472.276C474.714 61.5171 476.69 63.4931 476.69 65.9311V136.552C476.69 138.99 474.713 140.966 472.276 140.966Z" fill="#625D6B"/>
<path d="M269.241 88.001H331.034C333.472 88.001 335.448 86.025 335.448 83.587V48.277C335.448 45.839 333.472 43.863 331.034 43.863H269.241C266.803 43.863 264.827 45.839 264.827 48.277V83.587C264.828 86.024 266.804 88.001 269.241 88.001Z" fill="#736F7B"/>
<path d="M119.172 88.001H180.965C183.403 88.001 185.379 86.025 185.379 83.587V48.277C185.379 45.839 183.403 43.863 180.965 43.863H119.172C116.734 43.863 114.758 45.839 114.758 48.277V83.587C114.759 86.024 116.735 88.001 119.172 88.001Z" fill="#736F7B"/>
<path d="M39.7241 88.001H101.517C103.955 88.001 105.931 86.025 105.931 83.587V48.277C105.931 45.839 103.955 43.863 101.517 43.863H39.7241C37.2861 43.863 35.3101 45.839 35.3101 48.277V83.587C35.3101 86.024 37.2871 88.001 39.7241 88.001Z" fill="#736F7B"/>
<path d="M348.69 88.001H410.483C412.921 88.001 414.897 86.025 414.897 83.587V48.277C414.897 45.839 412.921 43.863 410.483 43.863H348.69C346.252 43.863 344.276 45.839 344.276 48.277V83.587C344.276 86.024 346.252 88.001 348.69 88.001Z" fill="#736F7B"/>
<path d="M500.231 43.863H498.759C496.321 43.863 494.345 45.839 494.345 48.277V83.587C494.345 86.025 496.321 88.001 498.759 88.001H510.04L500.231 43.863Z" fill="#736F7B"/>
</g>
<defs>
<clipPath id="clip0_503_184">
<rect width="512" height="176" fill="white"/>
</clipPath>
</defs>
</svg>
