<svg width="512" height="204" viewBox="0 0 512 204" fill="none" xmlns="http://www.w3.org/2000/svg">
<g clip-path="url(#clip0_503_78)">
<path d="M489.798 85.6131C473.171 75.3721 419.54 62.2781 344.278 62.2781L304.522 15.8981C296.137 6.1161 283.895 0.485107 271.011 0.485107H152.008C139.364 0.485107 127.138 5.0081 117.538 13.2361L70.6239 53.4501L20.5849 60.5981C13.4789 61.6131 7.69588 66.8291 5.95488 73.7931L0.00488281 97.5871L132.42 159.379H503.175V109.476C503.173 99.7171 498.107 90.7321 489.798 85.6131Z" fill="#8ABBFF"/>
<path d="M503.173 115.241C503.173 97.5859 476.691 79.9309 353.106 79.9309H8.83091C3.95591 79.9309 0.00390625 83.8839 0.00390625 88.7579V141.723L167.729 168.205H503.174V115.241H503.173Z" fill="#3F8FFE"/>
<path d="M503.173 150.551H89.2439L10.7439 133.108C6.02889 132.073 1.26989 135.043 0.208891 139.81C-0.843109 144.569 2.15789 149.284 6.91589 150.34L86.3629 167.995C86.9919 168.137 87.6299 168.206 88.2759 168.206H503.17C508.049 168.206 511.998 164.253 511.998 159.379C511.999 154.504 508.052 150.551 503.173 150.551Z" fill="#2677E9"/>
<path d="M423.72 194.686C448.096 194.686 467.857 174.925 467.857 150.549C467.857 126.173 448.096 106.412 423.72 106.412C399.344 106.412 379.583 126.173 379.583 150.549C379.583 174.925 399.344 194.686 423.72 194.686Z" fill="#EDEDEE"/>
<path d="M423.725 203.516C394.518 203.516 370.76 179.758 370.76 150.551C370.76 121.344 394.518 97.5859 423.725 97.5859C452.932 97.5859 476.69 121.344 476.69 150.551C476.69 179.758 452.932 203.516 423.725 203.516ZM423.725 115.241C404.252 115.241 388.415 131.078 388.415 150.551C388.415 170.024 404.252 185.861 423.725 185.861C443.198 185.861 459.035 170.025 459.035 150.551C459.035 131.078 443.199 115.241 423.725 115.241Z" fill="#504B5A"/>
<path d="M423.72 168.204C433.471 168.204 441.375 160.3 441.375 150.549C441.375 140.798 433.471 132.894 423.72 132.894C413.969 132.894 406.065 140.798 406.065 150.549C406.065 160.3 413.969 168.204 423.72 168.204Z" fill="#DCDBDE"/>
<path d="M88.2749 194.686C112.651 194.686 132.412 174.925 132.412 150.549C132.412 126.173 112.651 106.412 88.2749 106.412C63.8987 106.412 44.1379 126.173 44.1379 150.549C44.1379 174.925 63.8987 194.686 88.2749 194.686Z" fill="#EDEDEE"/>
<path d="M88.279 203.516C59.072 203.516 35.314 179.758 35.314 150.551C35.314 121.344 59.072 97.5859 88.279 97.5859C117.486 97.5859 141.244 121.344 141.244 150.551C141.243 179.758 117.485 203.516 88.279 203.516ZM88.279 115.241C68.806 115.241 52.969 131.078 52.969 150.551C52.969 170.024 68.806 185.861 88.279 185.861C107.752 185.861 123.589 170.025 123.589 150.551C123.589 131.078 107.752 115.241 88.279 115.241Z" fill="#504B5A"/>
<path d="M88.2751 168.204C98.0257 168.204 105.93 160.3 105.93 150.549C105.93 140.798 98.0257 132.894 88.2751 132.894C78.5245 132.894 70.6201 140.798 70.6201 150.549C70.6201 160.3 78.5245 168.204 88.2751 168.204Z" fill="#DCDBDE"/>
<path d="M353.105 132.896H167.728C162.853 132.896 158.901 128.943 158.901 124.069C158.901 119.194 162.854 115.242 167.728 115.242H353.105C357.98 115.242 361.932 119.194 361.932 124.069C361.933 128.945 357.98 132.896 353.105 132.896Z" fill="#2677E9"/>
<path d="M503.173 132.896H494.346C489.471 132.896 485.518 128.943 485.518 124.069C485.518 119.194 489.471 115.242 494.346 115.242H503.173C508.048 115.242 512 119.194 512 124.069C512 128.945 508.048 132.896 503.173 132.896Z" fill="#2677E9"/>
<path d="M70.624 53.4489L117.538 13.2349C127.138 5.00689 139.364 0.483887 152.008 0.483887H271.011C283.896 0.483887 296.136 6.1139 304.522 15.8969L344.278 62.2769H135.276C127.496 62.2769 119.73 61.6339 112.055 60.3549L70.624 53.4489Z" fill="#3F8FFE"/>
<path d="M261.294 15.664C257.94 11.639 252.971 9.31201 247.731 9.31201H166.207C161.525 9.31201 157.034 11.172 153.724 14.483L127.242 40.965C124.901 43.306 123.585 46.481 123.585 49.792C123.585 56.686 129.174 62.276 136.069 62.276H290.716C294.458 62.276 296.502 57.911 294.107 55.036L261.294 15.664Z" fill="#625D6B"/>
<path d="M185.381 62.276H158.898L176.553 9.31201H194.208L185.381 62.276Z" fill="#504B5A"/>
<path d="M493.697 88.759H485.516C480.641 88.759 476.689 92.711 476.689 97.586C476.689 102.461 480.642 106.413 485.516 106.413H502.777C502.011 99.548 498.814 93.337 493.697 88.759Z" fill="#EDEDEE"/>
<path d="M304.522 15.897C302.407 13.429 300.042 11.228 297.486 9.31201H283.08C279.338 9.31201 277.294 13.676 279.689 16.552L312.502 55.926C315.856 59.951 320.825 62.278 326.064 62.278H344.277L304.522 15.897Z" fill="#625D6B"/>
<path d="M0.00390625 88.7591V97.5861H17.6589C22.5339 97.5861 26.4859 93.6341 26.4859 88.7591C26.4859 83.8841 22.5329 79.9321 17.6589 79.9321H8.83091C3.95491 79.9311 0.00390625 83.8841 0.00390625 88.7591Z" fill="#FF6464"/>
</g>
<defs>
<clipPath id="clip0_503_78">
<rect width="512" height="204" fill="white"/>
</clipPath>
</defs>
</svg>
