<svg width="440" height="278" viewBox="0 0 440 278" fill="none" xmlns="http://www.w3.org/2000/svg">
<g clip-path="url(#clip0_504_257)">
<rect y="-0.586182" width="440" height="279.172" rx="15" fill="#8ABBFF"/>
<g clip-path="url(#clip1_504_257)">
<path d="M103.172 81.3447C111.086 81.3447 118.676 84.3819 124.272 89.7881C129.868 95.1944 133.011 102.527 133.011 110.172C133.011 117.818 129.868 125.15 124.272 130.556C118.676 135.963 111.086 139 103.172 139C95.2585 139 87.6688 135.963 82.0729 130.556C76.477 125.15 73.3332 117.818 73.3332 110.172C73.3332 102.527 76.477 95.1944 82.0729 89.7881C87.6688 84.3819 95.2585 81.3447 103.172 81.3447M103.172 153.414C136.144 153.414 162.85 166.314 162.85 182.241V196.655H43.4941V182.241C43.4941 166.314 70.2001 153.414 103.172 153.414Z" fill="#504B5A"/>
</g>
<path d="M220 -0.586182H425C433.284 -0.586182 440 6.12955 440 14.4138V263.586C440 271.871 433.284 278.586 425 278.586H220V-0.586182Z" fill="#3F8FFE"/>
<rect x="256.977" y="88.9312" width="138.422" height="19.7241" rx="8" fill="#504B5A"/>
<rect x="256.977" y="128.379" width="138.422" height="19.7241" rx="8" fill="#504B5A"/>
<rect x="256.977" y="167.828" width="113.814" height="19.7241" rx="8" fill="#504B5A"/>
</g>
<defs>
<clipPath id="clip0_504_257">
<rect width="440" height="278" fill="white"/>
</clipPath>
<clipPath id="clip1_504_257">
<rect width="118.345" height="115.31" fill="white" transform="translate(44 81.3447)"/>
</clipPath>
</defs>
</svg>
