<svg width="512" height="264" viewBox="0 0 512 264" fill="none" xmlns="http://www.w3.org/2000/svg">
<g clip-path="url(#clip0_503_145)">
<path d="M397.241 79.0341L361.931 96.6901L344.276 43.7241H379.586L397.241 79.0341Z" fill="#504B5A"/>
<path d="M414.897 79.035C424.648 79.035 432.552 69.1543 432.552 56.966C432.552 44.7776 424.648 34.897 414.897 34.897C405.146 34.897 397.242 44.7776 397.242 56.966C397.242 69.1543 405.146 79.035 414.897 79.035Z" fill="#DCDBDE"/>
<path d="M379.586 26.0691H401.655C408.968 26.0691 414.896 31.9981 414.896 39.3101V74.6201C414.896 81.9331 408.967 87.8611 401.655 87.8611H397.241L379.586 26.0691Z" fill="#8ABBFF"/>
<path d="M326.621 79.0339H158.897L185.379 132L150.069 158.483L141.241 184.966L211.862 211.448H282.483L300.138 184.966H308.966L326.621 123.172V79.0339Z" fill="#736F7B"/>
<path d="M216.276 105.517H322.207C329.52 105.517 335.448 99.5879 335.448 92.2759C335.448 84.9629 329.519 79.0349 322.207 79.0349H216.276C208.963 79.0349 203.035 84.9639 203.035 92.2759C203.034 99.5879 208.963 105.517 216.276 105.517Z" fill="#504B5A"/>
<path d="M264.828 105.517L270.591 122.806C272.5 128.533 277.202 132.887 283.058 134.351L308.966 140.827L322.207 105.517H264.828Z" fill="#625D6B"/>
<path d="M361.588 59.0229L369.349 98.369C370.252 102.947 369.306 107.696 366.717 111.578L322.741 177.542C319.629 182.21 314.485 185.12 308.883 185.384L300.138 185.797V167.31L326.621 87.862L361.588 59.0229Z" fill="#3F8FFE"/>
<path d="M79.448 105.517C35.571 105.517 0 141.088 0 184.966C0 228.844 35.571 264.414 79.448 264.414C123.325 264.414 158.896 228.843 158.896 184.966C158.896 141.089 123.326 105.517 79.448 105.517ZM79.448 237.931C50.196 237.931 26.482 214.218 26.482 184.965C26.482 155.713 50.195 131.999 79.448 131.999C108.701 131.999 132.414 155.712 132.414 184.965C132.414 214.218 108.701 237.931 79.448 237.931Z" fill="#504B5A"/>
<path d="M79.4479 220.276C98.9491 220.276 114.758 204.467 114.758 184.966C114.758 165.465 98.9491 149.656 79.4479 149.656C59.9468 149.656 44.1379 165.465 44.1379 184.966C44.1379 204.467 59.9468 220.276 79.4479 220.276Z" fill="#A7A5AC"/>
<path d="M79.448 202.621C89.1986 202.621 97.103 194.717 97.103 184.966C97.103 175.215 89.1986 167.311 79.448 167.311C69.6974 167.311 61.793 175.215 61.793 184.966C61.793 194.717 69.6974 202.621 79.448 202.621Z" fill="#504B5A"/>
<path d="M432.552 105.517C388.674 105.517 353.104 141.088 353.104 184.965C353.104 228.842 388.675 264.413 432.552 264.413C476.429 264.413 512 228.843 512 184.966C512 141.089 476.429 105.517 432.552 105.517ZM432.552 237.931C403.3 237.931 379.586 214.218 379.586 184.965C379.586 155.713 403.299 131.999 432.552 131.999C461.804 131.999 485.518 155.712 485.518 184.965C485.517 214.218 461.804 237.931 432.552 237.931Z" fill="#504B5A"/>
<path d="M432.552 220.276C452.053 220.276 467.862 204.467 467.862 184.966C467.862 165.465 452.053 149.656 432.552 149.656C413.051 149.656 397.242 165.465 397.242 184.966C397.242 204.467 413.051 220.276 432.552 220.276Z" fill="#A7A5AC"/>
<path d="M432.552 202.621C442.303 202.621 450.207 194.717 450.207 184.966C450.207 175.215 442.303 167.311 432.552 167.311C422.801 167.311 414.897 175.215 414.897 184.966C414.897 194.717 422.801 202.621 432.552 202.621Z" fill="#504B5A"/>
<path d="M432.552 193.798C428.905 193.798 425.492 191.518 424.215 187.885L365.526 20.1989C364.914 18.4309 363.233 17.2419 361.363 17.2419H344.276C339.397 17.2419 335.448 13.2889 335.448 8.41394C335.448 3.53894 339.396 -0.414062 344.276 -0.414062H361.362C370.724 -0.414062 379.094 5.52094 382.19 14.3579L440.888 182.048C442.491 186.652 440.069 191.686 435.466 193.298C434.5 193.633 433.517 193.798 432.552 193.798Z" fill="#625D6B"/>
<path d="M79.457 193.793C76.121 193.793 72.922 191.892 71.432 188.664C69.388 184.237 71.319 178.991 75.751 176.949L190.51 123.983C194.941 121.944 200.191 123.879 202.225 128.302C204.269 132.729 202.338 137.975 197.906 140.017L83.147 192.983C81.949 193.535 80.69 193.793 79.457 193.793Z" fill="#625D6B"/>
<path d="M247.172 79.0341L181.848 100.808C172.679 103.865 162.768 103.865 153.6 100.808L76.511 75.1121C68.383 72.4031 63.99 63.6161 66.699 55.4881C68.992 48.6091 75.745 44.2351 82.961 44.9571L247.173 61.3791V79.0341H247.172Z" fill="#625D6B"/>
<path d="M361.588 59.0229C364.104 74.1189 352.462 87.8619 337.158 87.8619H255.005C241.29 87.8619 232.37 73.4289 238.503 61.1619L238.542 61.0859C241.218 55.7329 246.324 52.0109 252.238 51.1019L333.392 38.6159C346.792 36.5539 359.359 45.6499 361.588 59.0229Z" fill="#8ABBFF"/>
<path d="M274.492 220.276H224.665C215.105 220.276 205.725 218.573 196.769 215.22L138.139 193.233C133.578 191.517 131.268 186.431 132.975 181.866C134.682 177.292 139.777 175.008 144.346 176.697L202.976 198.684C209.933 201.296 217.235 202.619 224.665 202.619H274.492C283.768 202.619 291.311 195.071 291.311 185.796C291.311 178.546 286.69 172.132 279.802 169.839L244.379 158.029C239.758 156.486 237.258 151.486 238.801 146.861C240.344 142.24 245.301 139.727 249.965 141.279L285.388 153.089C299.492 157.793 308.966 170.935 308.966 185.797C308.966 204.81 293.5 220.276 274.492 220.276Z" fill="#625D6B"/>
<path d="M233.931 193.793C246.119 193.793 256 183.912 256 171.724C256 159.536 246.119 149.655 233.931 149.655C221.743 149.655 211.862 159.536 211.862 171.724C211.862 183.912 221.743 193.793 233.931 193.793Z" fill="#504B5A"/>
<path d="M225.103 132C232.416 132 238.344 126.072 238.344 118.759C238.344 111.446 232.416 105.518 225.103 105.518C217.79 105.518 211.862 111.446 211.862 118.759C211.862 126.072 217.79 132 225.103 132Z" fill="#A7A5AC"/>
<path d="M337.655 79.0339C346.187 79.0339 353.103 72.1176 353.103 63.5859C353.103 55.0542 346.187 48.1379 337.655 48.1379C329.123 48.1379 322.207 55.0542 322.207 63.5859C322.207 72.1176 329.123 79.0339 337.655 79.0339Z" fill="#3F8FFE"/>
</g>
<defs>
<clipPath id="clip0_503_145">
<rect width="512" height="264" fill="white"/>
</clipPath>
</defs>
</svg>
