<svg width="417" height="174" viewBox="0 0 417 174" fill="none" xmlns="http://www.w3.org/2000/svg">
<g clip-path="url(#clip0_503_2)">
<path d="M156.203 156.424H34.7119C29.9199 156.424 26.0339 152.538 26.0339 147.746V130.39H156.203V156.424Z" fill="#8D8A94"/>
<path d="M234.789 139.068H17.356C12.564 139.068 8.67798 135.182 8.67798 130.39V113.034H295.051L250.313 135.404C245.492 137.813 240.178 139.068 234.789 139.068Z" fill="#A7A5AC"/>
<path d="M138.847 173.78C153.225 173.78 164.881 162.124 164.881 147.746C164.881 133.368 153.225 121.712 138.847 121.712C124.469 121.712 112.813 133.368 112.813 147.746C112.813 162.124 124.469 173.78 138.847 173.78Z" fill="#504B5A"/>
<path d="M138.847 160.763C146.036 160.763 151.864 154.935 151.864 147.746C151.864 140.557 146.036 134.729 138.847 134.729C131.658 134.729 125.83 140.557 125.83 147.746C125.83 154.935 131.658 160.763 138.847 160.763Z" fill="#DCDBDE"/>
<path d="M86.7801 173.78C101.158 173.78 112.814 162.124 112.814 147.746C112.814 133.368 101.158 121.712 86.7801 121.712C72.4019 121.712 60.7461 133.368 60.7461 147.746C60.7461 162.124 72.4019 173.78 86.7801 173.78Z" fill="#504B5A"/>
<path d="M86.7799 160.763C93.969 160.763 99.7969 154.935 99.7969 147.746C99.7969 140.557 93.969 134.729 86.7799 134.729C79.5908 134.729 73.7629 140.557 73.7629 147.746C73.7629 154.935 79.5908 160.763 86.7799 160.763Z" fill="#DCDBDE"/>
<path d="M8.678 0.219971H407.864C412.656 0.219971 416.542 4.10596 416.542 8.89796V113.034C416.542 117.826 412.656 121.712 407.864 121.712H8.678C3.886 121.712 0 117.826 0 113.034V8.89796C0 4.10596 3.886 0.219971 8.678 0.219971Z" fill="#3F8FFE"/>
<path d="M390.508 104.356H26.034C21.242 104.356 17.356 100.47 17.356 95.678C17.356 90.886 21.242 87 26.034 87H390.509C395.301 87 399.187 90.886 399.187 95.678C399.186 100.47 395.301 104.356 390.508 104.356Z" fill="#8ABBFF"/>
</g>
<defs>
<clipPath id="clip0_503_2">
<rect width="417" height="174" fill="white"/>
</clipPath>
</defs>
</svg>
