<svg width="512" height="292" viewBox="0 0 512 292" fill="none" xmlns="http://www.w3.org/2000/svg">
<g clip-path="url(#clip0_503_224)">
<path d="M414.897 185.724H326.621V212.207H35.3099C30.4349 212.207 26.4819 216.16 26.4819 221.035V238.69C26.4819 243.565 30.4349 247.518 35.3099 247.518H414.896V185.724H414.897Z" fill="#625D6B"/>
<path d="M335.448 0.344971H8.828C3.953 0.344971 0 4.29797 0 9.17297V203.38C0 208.255 3.953 212.208 8.828 212.208H335.449C340.324 212.208 344.277 208.255 344.277 203.38V9.17197C344.276 4.29697 340.323 0.344971 335.448 0.344971Z" fill="#DCDBDE"/>
<path d="M317.793 194.552H26.483C21.608 194.552 17.655 190.599 17.655 185.724C17.655 180.849 21.608 176.896 26.483 176.896H317.793C322.668 176.896 326.621 180.849 326.621 185.724C326.621 190.599 322.668 194.552 317.793 194.552Z" fill="#CAC9CD"/>
<path d="M317.793 35.655H26.483C21.608 35.655 17.655 31.702 17.655 26.827C17.655 21.952 21.608 17.999 26.483 17.999H317.793C322.668 17.999 326.621 21.952 326.621 26.827C326.621 31.703 322.668 35.655 317.793 35.655Z" fill="#CAC9CD"/>
<path d="M446.909 44.4829H370.759C365.884 44.4829 361.931 48.4359 361.931 53.3109V185.725C361.931 190.6 365.884 194.553 370.759 194.553H410.483V238.691H503.173V175.633C503.173 164.798 501.178 154.056 497.289 143.944L463.388 55.7999C460.765 48.9819 454.215 44.4829 446.909 44.4829Z" fill="#3F8FFE"/>
<path d="M503.173 194.552H410.483V238.69H503.173V194.552Z" fill="#8ABBFF"/>
<path d="M101.517 283.563C123.862 283.563 141.977 265.449 141.977 243.103C141.977 220.758 123.862 202.643 101.517 202.643C79.1714 202.643 61.0569 220.758 61.0569 243.103C61.0569 265.449 79.1714 283.563 101.517 283.563Z" fill="#EDEDEE"/>
<path d="M101.517 291.655C74.7441 291.655 52.9651 269.876 52.9651 243.103C52.9651 216.33 74.7441 194.551 101.517 194.551C128.29 194.551 150.069 216.33 150.069 243.103C150.069 269.876 128.29 291.655 101.517 291.655ZM101.517 212.207C84.4781 212.207 70.6201 226.064 70.6201 243.104C70.6201 260.144 84.4781 274 101.517 274C118.556 274 132.414 260.143 132.414 243.103C132.414 226.063 118.557 212.207 101.517 212.207Z" fill="#504B5A"/>
<path d="M101.517 260.758C111.268 260.758 119.172 252.854 119.172 243.103C119.172 233.352 111.268 225.448 101.517 225.448C91.7665 225.448 83.8621 233.352 83.8621 243.103C83.8621 252.854 91.7665 260.758 101.517 260.758Z" fill="#DCDBDE"/>
<path d="M410.483 283.563C432.828 283.563 450.943 265.449 450.943 243.103C450.943 220.758 432.828 202.643 410.483 202.643C388.137 202.643 370.023 220.758 370.023 243.103C370.023 265.449 388.137 283.563 410.483 283.563Z" fill="#EDEDEE"/>
<path d="M410.483 291.655C383.71 291.655 361.931 269.876 361.931 243.103C361.931 216.33 383.71 194.551 410.483 194.551C437.256 194.551 459.035 216.33 459.035 243.103C459.034 269.876 437.256 291.655 410.483 291.655ZM410.483 212.207C393.444 212.207 379.586 226.064 379.586 243.104C379.586 260.144 393.443 274 410.483 274C427.523 274 441.38 260.143 441.38 243.103C441.38 226.063 427.522 212.207 410.483 212.207Z" fill="#504B5A"/>
<path d="M410.483 260.758C420.234 260.758 428.138 252.854 428.138 243.103C428.138 233.352 420.234 225.448 410.483 225.448C400.733 225.448 392.828 233.352 392.828 243.103C392.828 252.854 400.733 260.758 410.483 260.758Z" fill="#DCDBDE"/>
<path d="M494.345 247.517H503.173C508.048 247.517 512.001 243.564 512.001 238.689V221.034C512.001 216.159 508.048 212.206 503.173 212.206H494.345C489.47 212.206 485.517 216.159 485.517 221.034V238.689C485.517 243.565 489.47 247.517 494.345 247.517Z" fill="#625D6B"/>
<path d="M494.345 176.897H503.173V203.38H494.345C489.47 203.38 485.517 199.427 485.517 194.552V185.724C485.517 180.849 489.47 176.897 494.345 176.897Z" fill="#EDEDEE"/>
<path d="M444.242 62.1379H388.414C383.539 62.1379 379.586 66.0909 379.586 70.9659V115.104C379.586 119.979 383.539 123.932 388.414 123.932H470.848C475.324 123.932 478.408 119.442 476.801 115.264L460.722 73.4549C458.098 66.6369 451.548 62.1379 444.242 62.1379Z" fill="#625D6B"/>
</g>
<defs>
<clipPath id="clip0_503_224">
<rect width="512" height="292" fill="white"/>
</clipPath>
</defs>
</svg>
