<svg width="201" height="135" viewBox="0 0 201 135" fill="none" xmlns="http://www.w3.org/2000/svg">
<g clip-path="url(#clip0_519_2)">
<path d="M199.607 20.0527V127.947C199.607 129.659 198.927 131.301 197.717 132.512C196.506 133.722 194.864 134.403 193.152 134.403H7.72151C6.00944 134.403 4.36748 133.722 3.15686 132.512C1.94623 131.301 1.26611 129.659 1.26611 127.947V10.5117C1.26611 8.08896 2.22855 5.76543 3.94169 4.05229C5.65484 2.33914 7.97836 1.37671 10.4011 1.37671H82.8924C85.1499 1.38891 87.3216 2.2431 88.9824 3.77211L99.6602 13.5567H193.142C193.994 13.5554 194.838 13.7227 195.625 14.049C196.412 14.3754 197.126 14.8543 197.727 15.4582C198.328 16.0621 198.804 16.779 199.127 17.5675C199.449 18.3561 199.613 19.2007 199.607 20.0527V20.0527Z" fill="#F7F7F7"/>
<path d="M193.152 135.418H7.7215C5.74105 135.415 3.84248 134.627 2.44209 133.227C1.0417 131.826 0.253784 129.928 0.251099 127.947V10.5118C0.251099 7.81988 1.32047 5.23819 3.22396 3.33469C5.12746 1.4312 7.70915 0.361825 10.4011 0.361825H82.8924C85.4226 0.35848 87.8614 1.30789 89.7233 3.02113L100.107 12.5418H193.192C195.173 12.5445 197.071 13.3324 198.472 14.7328C199.872 16.1332 200.66 18.0318 200.663 20.0122V127.907C200.667 128.894 200.475 129.873 200.099 130.786C199.723 131.699 199.17 132.529 198.472 133.227C197.774 133.925 196.944 134.478 196.031 134.854C195.118 135.23 194.139 135.422 193.152 135.418ZM10.3605 2.43243C8.20694 2.43243 6.14159 3.28793 4.61879 4.81072C3.096 6.33352 2.2405 8.39887 2.2405 10.5524V127.988C2.2405 128.702 2.38122 129.41 2.65463 130.07C2.92804 130.73 3.32877 131.33 3.83395 131.835C4.33914 132.34 4.93889 132.741 5.59895 133.014C6.25901 133.288 6.96645 133.428 7.6809 133.428H193.152C193.866 133.428 194.574 133.288 195.234 133.014C195.894 132.741 196.494 132.34 196.999 131.835C197.504 131.33 197.905 130.73 198.178 130.07C198.452 129.41 198.592 128.702 198.592 127.988V20.0528C198.592 19.3384 198.452 18.6309 198.178 17.9709C197.905 17.3108 197.504 16.7111 196.999 16.2059C196.494 15.7007 195.894 15.3 195.234 15.0266C194.574 14.7531 193.866 14.6124 193.152 14.6124H99.6704C99.4153 14.6143 99.1689 14.5201 98.9801 14.3485L88.3024 4.56392C86.8217 3.18773 84.8733 2.42578 82.8518 2.43243H10.3605Z" fill="#093F68"/>
<path d="M64.9472 105.8H26.3772C25.8388 105.8 25.3225 105.586 24.9418 105.205C24.5611 104.825 24.3472 104.308 24.3472 103.77V68.2145L33.7766 58.0645H64.9371C65.4755 58.0645 65.9918 58.2783 66.3725 58.659C66.7532 59.0397 66.9671 59.5561 66.9671 60.0945V103.841C66.9487 104.365 66.7282 104.862 66.3516 105.227C65.9751 105.592 65.4718 105.798 64.9472 105.8V105.8Z" fill="#3F8FFE"/>
<path d="M64.9472 106.815H26.3772C25.5696 106.815 24.7951 106.494 24.2241 105.923C23.653 105.352 23.3322 104.578 23.3322 103.77V68.2146C23.3331 67.9581 23.431 67.7115 23.6063 67.5244L33.0356 57.3744C33.1302 57.2723 33.2449 57.1908 33.3723 57.1349C33.4998 57.0791 33.6374 57.05 33.7766 57.0496H64.9371C65.7446 57.0496 66.5192 57.3704 67.0902 57.9414C67.6613 58.5125 67.9821 59.287 67.9821 60.0946V103.841C67.9635 104.635 67.636 105.389 67.0691 105.945C66.5022 106.5 65.7409 106.813 64.9472 106.815V106.815ZM25.3622 68.6206V103.811C25.3622 104.08 25.4692 104.338 25.6595 104.528C25.8498 104.719 26.108 104.826 26.3772 104.826H64.9472C65.2164 104.826 65.4746 104.719 65.6649 104.528C65.8553 104.338 65.9622 104.08 65.9622 103.811V60.0641C65.9622 59.7949 65.8553 59.5367 65.6649 59.3464C65.4746 59.156 65.2164 59.0491 64.9472 59.0491H34.2333L25.3622 68.6206Z" fill="#093F68"/>
<path d="M24.3574 68.2146H33.6446V58.0747L24.3574 68.2146Z" fill="#F7F7F7"/>
<path d="M33.6446 69.2296H24.3573C24.1621 69.2292 23.9711 69.1725 23.8073 69.0663C23.6435 68.96 23.5137 68.8088 23.4337 68.6307C23.3529 68.451 23.3262 68.2516 23.3569 68.057C23.3875 67.8623 23.4742 67.6808 23.6062 67.5345L32.9036 57.3845C33.0426 57.2361 33.2229 57.1329 33.4212 57.0881C33.6195 57.0434 33.8267 57.0592 34.0159 57.1336C34.2051 57.208 34.3676 57.3374 34.4824 57.5052C34.5972 57.673 34.6589 57.8714 34.6596 58.0747V68.2247C34.6569 68.4922 34.5488 68.7477 34.3587 68.9359C34.1687 69.1241 33.912 69.2296 33.6446 69.2296V69.2296ZM26.6614 67.1996H32.6296V60.6833L26.6614 67.1996Z" fill="#093F68"/>
<path d="M59.2226 76.8015H32.3657C32.0965 76.8015 31.8383 76.6945 31.648 76.5042C31.4576 76.3138 31.3507 76.0557 31.3507 75.7865C31.3507 75.5173 31.4576 75.2591 31.648 75.0688C31.8383 74.8784 32.0965 74.7715 32.3657 74.7715H59.2226C59.4918 74.7715 59.75 74.8784 59.9403 75.0688C60.1307 75.2591 60.2376 75.5173 60.2376 75.7865C60.2376 76.0557 60.1307 76.3138 59.9403 76.5042C59.75 76.6945 59.4918 76.8015 59.2226 76.8015Z" fill="white"/>
<path d="M59.2226 83.4092H32.3657C32.0965 83.4092 31.8383 83.3022 31.648 83.1119C31.4576 82.9215 31.3507 82.6633 31.3507 82.3942C31.3507 82.125 31.4576 81.8668 31.648 81.6764C31.8383 81.4861 32.0965 81.3792 32.3657 81.3792H59.2226C59.4918 81.3792 59.75 81.4861 59.9403 81.6764C60.1307 81.8668 60.2376 82.125 60.2376 82.3942C60.2376 82.6633 60.1307 82.9215 59.9403 83.1119C59.75 83.3022 59.4918 83.4092 59.2226 83.4092Z" fill="white"/>
<path d="M59.2226 90.0168H32.3657C32.0965 90.0168 31.8383 89.9099 31.648 89.7195C31.4576 89.5292 31.3507 89.271 31.3507 89.0018C31.3507 88.7326 31.4576 88.4745 31.648 88.2841C31.8383 88.0938 32.0965 87.9868 32.3657 87.9868H59.2226C59.4918 87.9868 59.75 88.0938 59.9403 88.2841C60.1307 88.4745 60.2376 88.7326 60.2376 89.0018C60.2376 89.271 60.1307 89.5292 59.9403 89.7195C59.75 89.9099 59.4918 90.0168 59.2226 90.0168Z" fill="white"/>
<path d="M51.5086 96.6242H32.3657C32.0965 96.6242 31.8383 96.5173 31.648 96.327C31.4576 96.1366 31.3507 95.8784 31.3507 95.6092C31.3507 95.34 31.4576 95.0819 31.648 94.8915C31.8383 94.7012 32.0965 94.5942 32.3657 94.5942H51.5086C51.7778 94.5942 52.036 94.7012 52.2263 94.8915C52.4167 95.0819 52.5236 95.34 52.5236 95.6092C52.5236 95.8784 52.4167 96.1366 52.2263 96.327C52.036 96.5173 51.7778 96.6242 51.5086 96.6242Z" fill="white"/>
<path d="M59.8012 98.8775H21.2312C20.6928 98.8775 20.1764 98.6637 19.7957 98.283C19.415 97.9023 19.2012 97.3859 19.2012 96.8475V61.2921L28.6407 51.1421H59.791C60.3294 51.1421 60.8457 51.356 61.2264 51.7367C61.6071 52.1174 61.821 52.6337 61.821 53.1721V96.9186C61.8027 97.4428 61.5821 97.9396 61.2055 98.3048C60.829 98.67 60.3257 98.8752 59.8012 98.8775Z" fill="#3F8FFE"/>
<path d="M59.8012 99.8927H21.2312C20.4236 99.8927 19.6491 99.5719 19.078 99.0008C18.507 98.4298 18.1862 97.6552 18.1862 96.8477V61.2922C18.187 61.0358 18.2849 60.7892 18.4602 60.602L27.8896 50.452C27.9854 50.3487 28.1016 50.2665 28.2309 50.2106C28.3602 50.1546 28.4998 50.1263 28.6407 50.1272H59.791C60.5986 50.1272 61.3731 50.448 61.9441 51.0191C62.5152 51.5901 62.836 52.3646 62.836 53.1722V96.9187C62.8175 97.7122 62.4899 98.467 61.923 99.0225C61.3562 99.578 60.5948 99.8902 59.8012 99.8927V99.8927ZM20.2162 61.6982V96.8883C20.2162 97.1575 20.3231 97.4156 20.5134 97.606C20.7038 97.7963 20.962 97.9033 21.2312 97.9033H59.8012C60.0704 97.9033 60.3285 97.7963 60.5189 97.606C60.7092 97.4156 60.8162 97.1575 60.8162 96.8883V53.1418C60.8162 52.8726 60.7092 52.6144 60.5189 52.424C60.3285 52.2337 60.0704 52.1268 59.8012 52.1268H29.0872L20.2162 61.6982Z" fill="#093F68"/>
<path d="M19.2113 61.2922H28.4986V51.1523L19.2113 61.2922Z" fill="#F7F7F7"/>
<path d="M28.5087 62.3073H19.2113C19.0161 62.3049 18.8256 62.2462 18.6629 62.1383C18.5001 62.0304 18.372 61.8778 18.2938 61.6989C18.2156 61.52 18.1906 61.3223 18.2219 61.1295C18.2533 60.9368 18.3395 60.7572 18.4704 60.6122L27.7576 50.4622C27.8958 50.3101 28.077 50.2036 28.2771 50.1567C28.4772 50.1098 28.6868 50.1247 28.8782 50.1995C29.0696 50.2743 29.2338 50.4055 29.3491 50.5756C29.4644 50.7458 29.5253 50.9469 29.5237 51.1524V61.3024C29.5211 61.5699 29.4129 61.8254 29.2229 62.0136C29.0328 62.2017 28.7762 62.3073 28.5087 62.3073V62.3073ZM21.5255 60.2773H27.4937V53.761L21.5255 60.2773Z" fill="#093F68"/>
<path d="M54.0766 69.8791H27.2197C26.9505 69.8791 26.6923 69.7722 26.5019 69.5818C26.3116 69.3915 26.2047 69.1333 26.2047 68.8641C26.2047 68.5949 26.3116 68.3368 26.5019 68.1464C26.6923 67.9561 26.9505 67.8491 27.2197 67.8491H54.0766C54.3458 67.8491 54.6039 67.9561 54.7943 68.1464C54.9846 68.3368 55.0916 68.5949 55.0916 68.8641C55.0916 69.1333 54.9846 69.3915 54.7943 69.5818C54.6039 69.7722 54.3458 69.8791 54.0766 69.8791Z" fill="white"/>
<path d="M54.0766 76.4868H27.2197C26.9505 76.4868 26.6923 76.3799 26.5019 76.1895C26.3116 75.9992 26.2047 75.741 26.2047 75.4718C26.2047 75.2026 26.3116 74.9444 26.5019 74.7541C26.6923 74.5637 26.9505 74.4568 27.2197 74.4568H54.0766C54.3458 74.4568 54.6039 74.5637 54.7943 74.7541C54.9846 74.9444 55.0916 75.2026 55.0916 75.4718C55.0916 75.741 54.9846 75.9992 54.7943 76.1895C54.6039 76.3799 54.3458 76.4868 54.0766 76.4868Z" fill="white"/>
<path d="M54.0766 83.135H27.2197C26.9505 83.135 26.6923 83.028 26.5019 82.8377C26.3116 82.6473 26.2047 82.3892 26.2047 82.12C26.2047 81.8508 26.3116 81.5926 26.5019 81.4023C26.6923 81.2119 26.9505 81.105 27.2197 81.105H54.0766C54.3458 81.105 54.6039 81.2119 54.7943 81.4023C54.9846 81.5926 55.0916 81.8508 55.0916 82.12C55.0916 82.3892 54.9846 82.6473 54.7943 82.8377C54.6039 83.028 54.3458 83.135 54.0766 83.135Z" fill="white"/>
<path d="M46.3626 89.7021H27.2197C26.9505 89.7021 26.6923 89.5952 26.5019 89.4048C26.3116 89.2145 26.2047 88.9563 26.2047 88.6871C26.2047 88.4179 26.3116 88.1598 26.5019 87.9694C26.6923 87.7791 26.9505 87.6721 27.2197 87.6721H46.3626C46.6317 87.6721 46.8899 87.7791 47.0803 87.9694C47.2706 88.1598 47.3776 88.4179 47.3776 88.6871C47.3776 88.9563 47.2706 89.2145 47.0803 89.4048C46.8899 89.5952 46.6317 89.7021 46.3626 89.7021V89.7021Z" fill="white"/>
<path d="M54.6653 91.9554H16.0952C15.5569 91.9554 15.0405 91.7415 14.6598 91.3608C14.2791 90.9801 14.0652 90.4638 14.0652 89.9254V54.37L23.4946 44.22H54.6551C55.1935 44.22 55.7098 44.4338 56.0905 44.8145C56.4712 45.1952 56.6851 45.7116 56.6851 46.25V89.9965C56.6667 90.5207 56.4462 91.0175 56.0696 91.3827C55.6931 91.7479 55.1898 91.9531 54.6653 91.9554V91.9554Z" fill="white"/>
<path d="M54.6653 92.9703H16.0953C15.2877 92.9703 14.5132 92.6495 13.9421 92.0784C13.3711 91.5074 13.0503 90.7329 13.0503 89.9253V54.3698C13.0484 54.1148 13.1426 53.8684 13.3142 53.6796L22.7537 43.5296C22.8483 43.4276 22.9629 43.3461 23.0904 43.2902C23.2178 43.2343 23.3554 43.2053 23.4946 43.2048H54.6551C55.4627 43.2048 56.2372 43.5256 56.8082 44.0967C57.3793 44.6677 57.7001 45.4422 57.7001 46.2498V89.9963C57.6816 90.7898 57.354 91.5446 56.7872 92.1001C56.2203 92.6556 55.4589 92.9679 54.6653 92.9703V92.9703ZM15.0803 54.7758V89.9659C15.0803 90.2351 15.1872 90.4932 15.3775 90.6836C15.5679 90.8739 15.8261 90.9809 16.0953 90.9809H54.6653C54.9345 90.9809 55.1926 90.8739 55.383 90.6836C55.5733 90.4932 55.6803 90.2351 55.6803 89.9659V46.2194C55.6803 45.9502 55.5733 45.692 55.383 45.5017C55.1926 45.3113 54.9345 45.2044 54.6653 45.2044H23.9412L15.0803 54.7758Z" fill="#093F68"/>
<path d="M14.0754 54.3698H23.3626V44.23L14.0754 54.3698Z" fill="#3F8FFE"/>
<path d="M23.3627 55.385H14.0754C13.8793 55.3845 13.6875 55.3272 13.5232 55.2201C13.359 55.1129 13.2293 54.9605 13.1498 54.7812C13.0704 54.6018 13.0446 54.4034 13.0755 54.2097C13.1065 54.016 13.1929 53.8355 13.3243 53.6899L22.6116 43.5399C22.7505 43.3902 22.9314 43.2858 23.1306 43.2406C23.3298 43.1953 23.538 43.2112 23.7281 43.2862C23.9188 43.3598 24.0829 43.4893 24.1988 43.6577C24.3147 43.8261 24.3771 44.0256 24.3777 44.2301V54.3801C24.375 54.6475 24.2669 54.9031 24.0768 55.0913C23.8867 55.2794 23.6301 55.385 23.3627 55.385ZM16.3795 53.355H22.3477V46.8387L16.3795 53.355Z" fill="#093F68"/>
<path d="M48.9407 62.9568H22.0736C21.8044 62.9568 21.5462 62.8498 21.3559 62.6595C21.1655 62.4691 21.0586 62.211 21.0586 61.9418C21.0586 61.6726 21.1655 61.4144 21.3559 61.224C21.5462 61.0337 21.8044 60.9268 22.0736 60.9268H48.9407C49.2098 60.9268 49.468 61.0337 49.6584 61.224C49.8487 61.4144 49.9557 61.6726 49.9557 61.9418C49.9557 62.211 49.8487 62.4691 49.6584 62.6595C49.468 62.8498 49.2098 62.9568 48.9407 62.9568V62.9568Z" fill="#DFEAEF"/>
<path d="M48.9407 69.5644H22.0736C21.8044 69.5644 21.5462 69.4575 21.3559 69.2671C21.1655 69.0768 21.0586 68.8186 21.0586 68.5494C21.0586 68.2802 21.1655 68.0221 21.3559 67.8317C21.5462 67.6414 21.8044 67.5344 22.0736 67.5344H48.9407C49.2098 67.5344 49.468 67.6414 49.6584 67.8317C49.8487 68.0221 49.9557 68.2802 49.9557 68.5494C49.9557 68.8186 49.8487 69.0768 49.6584 69.2671C49.468 69.4575 49.2098 69.5644 48.9407 69.5644V69.5644Z" fill="#DFEAEF"/>
<path d="M48.9407 76.1721H22.0736C21.8044 76.1721 21.5462 76.0652 21.3559 75.8748C21.1655 75.6845 21.0586 75.4263 21.0586 75.1571C21.0586 74.8879 21.1655 74.6297 21.3559 74.4394C21.5462 74.249 21.8044 74.1421 22.0736 74.1421H48.9407C49.2098 74.1421 49.468 74.249 49.6584 74.4394C49.8487 74.6297 49.9557 74.8879 49.9557 75.1571C49.9557 75.4263 49.8487 75.6845 49.6584 75.8748C49.468 76.0652 49.2098 76.1721 48.9407 76.1721V76.1721Z" fill="#DFEAEF"/>
<path d="M41.2165 82.7798H22.0736C21.8044 82.7798 21.5462 82.6728 21.3559 82.4825C21.1655 82.2921 21.0586 82.034 21.0586 81.7648C21.0586 81.4956 21.1655 81.2374 21.3559 81.047C21.5462 80.8567 21.8044 80.7498 22.0736 80.7498H41.2165C41.4857 80.7498 41.7439 80.8567 41.9342 81.047C42.1246 81.2374 42.2315 81.4956 42.2315 81.7648C42.2315 82.034 42.1246 82.2921 41.9342 82.4825C41.7439 82.6728 41.4857 82.7798 41.2165 82.7798Z" fill="#DFEAEF"/>
<path d="M125.198 105.8H86.6276C86.0892 105.8 85.5729 105.586 85.1922 105.205C84.8115 104.825 84.5976 104.308 84.5976 103.77V68.2145L94.027 58.0645H125.187C125.726 58.0645 126.242 58.2783 126.623 58.659C127.004 59.0397 127.217 59.5561 127.217 60.0945V103.841C127.199 104.365 126.979 104.862 126.602 105.227C126.225 105.592 125.722 105.798 125.198 105.8V105.8Z" fill="#8ABBFF"/>
<path d="M125.198 106.815H86.6276C85.82 106.815 85.0455 106.494 84.4744 105.923C83.9034 105.352 83.5826 104.578 83.5826 103.77V68.2146C83.5835 67.9581 83.6814 67.7115 83.8566 67.5244L93.286 57.3744C93.3806 57.2723 93.4952 57.1908 93.6227 57.1349C93.7502 57.0791 93.8878 57.05 94.0269 57.0496H125.187C125.995 57.0496 126.77 57.3704 127.341 57.9414C127.912 58.5125 128.232 59.287 128.232 60.0946V103.841C128.214 104.635 127.886 105.389 127.319 105.945C126.753 106.5 125.991 106.813 125.198 106.815ZM85.6126 68.6206V103.811C85.6126 104.08 85.7195 104.338 85.9099 104.528C86.1002 104.719 86.3584 104.826 86.6276 104.826H125.198C125.467 104.826 125.725 104.719 125.915 104.528C126.106 104.338 126.213 104.08 126.213 103.811V60.0641C126.213 59.7949 126.106 59.5367 125.915 59.3464C125.725 59.156 125.467 59.0491 125.198 59.0491H94.4837L85.6126 68.6206Z" fill="#093F68"/>
<path d="M84.6078 68.2146H93.895V58.0747L84.6078 68.2146Z" fill="#F7F7F7"/>
<path d="M93.895 69.2296H84.6078C84.4125 69.2272 84.2221 69.1685 84.0593 69.0606C83.8966 68.9527 83.7684 68.8001 83.6902 68.6212C83.612 68.4423 83.587 68.2446 83.6184 68.0518C83.6497 67.8591 83.7359 67.6795 83.8668 67.5345L93.1541 57.3845C93.293 57.2361 93.4733 57.1329 93.6716 57.0881C93.8699 57.0434 94.0771 57.0592 94.2663 57.1336C94.4555 57.208 94.618 57.3374 94.7328 57.5052C94.8476 57.673 94.9093 57.8714 94.91 58.0747V68.2247C94.9073 68.4922 94.7992 68.7477 94.6091 68.9359C94.4191 69.1241 94.1624 69.2296 93.895 69.2296V69.2296ZM86.9118 67.1996H92.88V60.6833L86.9118 67.1996Z" fill="#093F68"/>
<path d="M119.473 76.8015H92.6161C92.3469 76.8015 92.0887 76.6945 91.8984 76.5042C91.708 76.3138 91.6011 76.0557 91.6011 75.7865C91.6011 75.5173 91.708 75.2591 91.8984 75.0688C92.0887 74.8784 92.3469 74.7715 92.6161 74.7715H119.473C119.742 74.7715 120 74.8784 120.191 75.0688C120.381 75.2591 120.488 75.5173 120.488 75.7865C120.488 76.0557 120.381 76.3138 120.191 76.5042C120 76.6945 119.742 76.8015 119.473 76.8015Z" fill="white"/>
<path d="M119.473 83.4092H92.6161C92.3469 83.4092 92.0887 83.3022 91.8984 83.1119C91.708 82.9215 91.6011 82.6633 91.6011 82.3942C91.6011 82.125 91.708 81.8668 91.8984 81.6764C92.0887 81.4861 92.3469 81.3792 92.6161 81.3792H119.473C119.742 81.3792 120 81.4861 120.191 81.6764C120.381 81.8668 120.488 82.125 120.488 82.3942C120.488 82.6633 120.381 82.9215 120.191 83.1119C120 83.3022 119.742 83.4092 119.473 83.4092Z" fill="white"/>
<path d="M119.473 90.0168H92.6161C92.3469 90.0168 92.0887 89.9099 91.8984 89.7195C91.708 89.5292 91.6011 89.271 91.6011 89.0018C91.6011 88.7326 91.708 88.4745 91.8984 88.2841C92.0887 88.0938 92.3469 87.9868 92.6161 87.9868H119.473C119.742 87.9868 120 88.0938 120.191 88.2841C120.381 88.4745 120.488 88.7326 120.488 89.0018C120.488 89.271 120.381 89.5292 120.191 89.7195C120 89.9099 119.742 90.0168 119.473 90.0168Z" fill="white"/>
<path d="M111.759 96.6242H92.6161C92.3469 96.6242 92.0887 96.5173 91.8984 96.327C91.708 96.1366 91.6011 95.8784 91.6011 95.6092C91.6011 95.34 91.708 95.0819 91.8984 94.8915C92.0887 94.7012 92.3469 94.5942 92.6161 94.5942H111.759C112.028 94.5942 112.286 94.7012 112.477 94.8915C112.667 95.0819 112.774 95.34 112.774 95.6092C112.774 95.8784 112.667 96.1366 112.477 96.327C112.286 96.5173 112.028 96.6242 111.759 96.6242Z" fill="white"/>
<path d="M120.052 98.8775H81.4815C80.9431 98.8775 80.4268 98.6637 80.0461 98.283C79.6654 97.9023 79.4515 97.3859 79.4515 96.8475V61.2921L88.891 51.1421H120.041C120.58 51.1421 121.096 51.356 121.477 51.7367C121.858 52.1174 122.071 52.6337 122.071 53.1721V96.9186C122.053 97.4428 121.832 97.9396 121.456 98.3048C121.079 98.67 120.576 98.8752 120.052 98.8775Z" fill="#8ABBFF"/>
<path d="M120.052 99.8927H81.4816C80.674 99.8927 79.8995 99.5719 79.3284 99.0008C78.7574 98.4298 78.4366 97.6552 78.4366 96.8477V61.2922C78.4347 61.0372 78.5289 60.7908 78.7004 60.602L88.1298 50.452C88.2256 50.3487 88.3419 50.2665 88.4712 50.2106C88.6005 50.1546 88.74 50.1263 88.8809 50.1272H120.031C120.839 50.1272 121.613 50.448 122.184 51.0191C122.755 51.5901 123.076 52.3646 123.076 53.1722V96.9187C123.058 97.7104 122.732 98.4638 122.167 99.019C121.602 99.5742 120.843 99.8876 120.052 99.8927V99.8927ZM80.4666 61.6982V96.8883C80.4666 97.1575 80.5735 97.4156 80.7638 97.606C80.9542 97.7963 81.2124 97.9033 81.4816 97.9033H120.052C120.321 97.9033 120.579 97.7963 120.769 97.606C120.96 97.4156 121.067 97.1575 121.067 96.8883V53.1418C121.067 52.8726 120.96 52.6144 120.769 52.424C120.579 52.2337 120.321 52.1268 120.052 52.1268H89.3376L80.4666 61.6982Z" fill="#093F68"/>
<path d="M79.4617 61.2922H88.7591V51.1523L79.4617 61.2922Z" fill="#F7F7F7"/>
<path d="M88.7591 62.3073H79.4718C79.2757 62.3068 79.0839 62.2495 78.9197 62.1424C78.7554 62.0352 78.6257 61.8828 78.5463 61.7035C78.4668 61.5242 78.441 61.3257 78.472 61.132C78.5029 60.9384 78.5893 60.7578 78.7207 60.6122L88.008 50.4622C88.1462 50.3101 88.3273 50.2036 88.5274 50.1567C88.7275 50.1098 88.9371 50.1247 89.1286 50.1995C89.32 50.2743 89.4842 50.4055 89.5994 50.5756C89.7147 50.7458 89.7756 50.9469 89.7741 51.1524V61.3024C89.7714 61.5699 89.6633 61.8254 89.4732 62.0136C89.2832 62.2017 89.0265 62.3073 88.7591 62.3073V62.3073ZM81.7759 60.2773H87.7441V53.761L81.7759 60.2773Z" fill="#093F68"/>
<path d="M114.327 69.8791H87.4701C87.2009 69.8791 86.9427 69.7722 86.7524 69.5818C86.562 69.3915 86.4551 69.1333 86.4551 68.8641C86.4551 68.5949 86.562 68.3368 86.7524 68.1464C86.9427 67.9561 87.2009 67.8491 87.4701 67.8491H114.327C114.596 67.8491 114.854 67.9561 115.045 68.1464C115.235 68.3368 115.342 68.5949 115.342 68.8641C115.342 69.1333 115.235 69.3915 115.045 69.5818C114.854 69.7722 114.596 69.8791 114.327 69.8791Z" fill="white"/>
<path d="M114.327 76.4868H87.4701C87.2009 76.4868 86.9427 76.3799 86.7524 76.1895C86.562 75.9992 86.4551 75.741 86.4551 75.4718C86.4551 75.2026 86.562 74.9444 86.7524 74.7541C86.9427 74.5637 87.2009 74.4568 87.4701 74.4568H114.327C114.596 74.4568 114.854 74.5637 115.045 74.7541C115.235 74.9444 115.342 75.2026 115.342 75.4718C115.342 75.741 115.235 75.9992 115.045 76.1895C114.854 76.3799 114.596 76.4868 114.327 76.4868Z" fill="white"/>
<path d="M114.327 83.135H87.4701C87.2009 83.135 86.9427 83.028 86.7524 82.8377C86.562 82.6473 86.4551 82.3892 86.4551 82.12C86.4551 81.8508 86.562 81.5926 86.7524 81.4023C86.9427 81.2119 87.2009 81.105 87.4701 81.105H114.327C114.596 81.105 114.854 81.2119 115.045 81.4023C115.235 81.5926 115.342 81.8508 115.342 82.12C115.342 82.3892 115.235 82.6473 115.045 82.8377C114.854 83.028 114.596 83.135 114.327 83.135Z" fill="white"/>
<path d="M106.613 89.7021H87.4701C87.2009 89.7021 86.9427 89.5952 86.7524 89.4048C86.562 89.2145 86.4551 88.9563 86.4551 88.6871C86.4551 88.4179 86.562 88.1598 86.7524 87.9694C86.9427 87.7791 87.2009 87.6721 87.4701 87.6721H106.613C106.882 87.6721 107.14 87.7791 107.331 87.9694C107.521 88.1598 107.628 88.4179 107.628 88.6871C107.628 88.9563 107.521 89.2145 107.331 89.4048C107.14 89.5952 106.882 89.7021 106.613 89.7021V89.7021Z" fill="white"/>
<path d="M114.916 91.9554H76.3457C75.8073 91.9554 75.2909 91.7415 74.9102 91.3608C74.5295 90.9801 74.3157 90.4638 74.3157 89.9254V54.37L83.745 44.22H114.906C115.444 44.22 115.96 44.4338 116.341 44.8145C116.722 45.1952 116.936 45.7116 116.936 46.25V89.9965C116.917 90.5207 116.697 91.0175 116.32 91.3827C115.944 91.7479 115.44 91.9531 114.916 91.9554V91.9554Z" fill="white"/>
<path d="M114.916 92.9702H76.3457C75.5381 92.9702 74.7636 92.6494 74.1925 92.0784C73.6215 91.5073 73.3007 90.7328 73.3007 89.9252V54.3698C73.3121 54.1177 73.417 53.8788 73.595 53.6999L83.0345 43.5499C83.1291 43.4479 83.2438 43.3664 83.3712 43.3105C83.4987 43.2546 83.6363 43.2255 83.7755 43.2251H114.936C115.744 43.2251 116.518 43.5459 117.089 44.117C117.66 44.688 117.981 45.4625 117.981 46.2701V90.0166C117.957 90.8118 117.623 91.566 117.05 92.118C116.477 92.67 115.711 92.9759 114.916 92.9702ZM75.3307 54.7758V89.9658C75.3307 90.235 75.4376 90.4932 75.6279 90.6836C75.8183 90.8739 76.0765 90.9808 76.3457 90.9808H114.916C115.185 90.9808 115.443 90.8739 115.633 90.6836C115.824 90.4932 115.931 90.235 115.931 89.9658V46.2193C115.931 45.9501 115.824 45.692 115.633 45.5016C115.443 45.3113 115.185 45.2043 114.916 45.2043H84.1916L75.3307 54.7758Z" fill="#093F68"/>
<path d="M74.3258 54.3698H83.613V44.23L74.3258 54.3698Z" fill="#8ABBFF"/>
<path d="M83.613 55.3848H74.3258C74.1333 55.3789 73.9465 55.3183 73.7872 55.2102C73.6278 55.1021 73.5025 54.9508 73.4259 54.7742C73.3493 54.5975 73.3245 54.4027 73.3544 54.2125C73.3844 54.0223 73.4678 53.8445 73.595 53.6999L82.8822 43.5499C83.0212 43.4002 83.2021 43.2959 83.4013 43.2506C83.6005 43.2053 83.8087 43.2212 83.9987 43.2962C84.1895 43.3698 84.3536 43.4993 84.4695 43.6677C84.5854 43.8361 84.6477 44.0357 84.6483 44.2401V54.3901C84.6457 54.5234 84.6168 54.6549 84.5634 54.777C84.5099 54.8992 84.4329 55.0096 84.3368 55.1019C84.2406 55.1943 84.1272 55.2668 84.0031 55.3154C83.8789 55.3639 83.7463 55.3875 83.613 55.3848ZM76.6299 53.3548H82.598V46.8385L76.6299 53.3548Z" fill="#093F68"/>
<path d="M109.191 62.9568H82.324C82.0548 62.9568 81.7967 62.8498 81.6063 62.6595C81.416 62.4691 81.309 62.211 81.309 61.9418C81.309 61.6726 81.416 61.4144 81.6063 61.224C81.7967 61.0337 82.0548 60.9268 82.324 60.9268H109.191C109.46 60.9268 109.718 61.0337 109.909 61.224C110.099 61.4144 110.206 61.6726 110.206 61.9418C110.206 62.211 110.099 62.4691 109.909 62.6595C109.718 62.8498 109.46 62.9568 109.191 62.9568Z" fill="#DFEAEF"/>
<path d="M109.191 69.5644H82.324C82.0548 69.5644 81.7967 69.4575 81.6063 69.2671C81.416 69.0768 81.309 68.8186 81.309 68.5494C81.309 68.2802 81.416 68.0221 81.6063 67.8317C81.7967 67.6414 82.0548 67.5344 82.324 67.5344H109.191C109.46 67.5344 109.718 67.6414 109.909 67.8317C110.099 68.0221 110.206 68.2802 110.206 68.5494C110.206 68.8186 110.099 69.0768 109.909 69.2671C109.718 69.4575 109.46 69.5644 109.191 69.5644Z" fill="#DFEAEF"/>
<path d="M109.191 76.1721H82.324C82.0548 76.1721 81.7967 76.0652 81.6063 75.8748C81.416 75.6845 81.309 75.4263 81.309 75.1571C81.309 74.8879 81.416 74.6297 81.6063 74.4394C81.7967 74.249 82.0548 74.1421 82.324 74.1421H109.191C109.46 74.1421 109.718 74.249 109.909 74.4394C110.099 74.6297 110.206 74.8879 110.206 75.1571C110.206 75.4263 110.099 75.6845 109.909 75.8748C109.718 76.0652 109.46 76.1721 109.191 76.1721Z" fill="#DFEAEF"/>
<path d="M101.467 82.7798H82.324C82.0548 82.7798 81.7967 82.6728 81.6063 82.4825C81.416 82.2921 81.309 82.034 81.309 81.7648C81.309 81.4956 81.416 81.2374 81.6063 81.047C81.7967 80.8567 82.0548 80.7498 82.324 80.7498H101.467C101.736 80.7498 101.994 80.8567 102.185 81.047C102.375 81.2374 102.482 81.4956 102.482 81.7648C102.482 82.034 102.375 82.2921 102.185 82.4825C101.994 82.6728 101.736 82.7798 101.467 82.7798V82.7798Z" fill="#DFEAEF"/>
<path d="M185.448 105.8H146.878C146.34 105.8 145.823 105.586 145.443 105.205C145.062 104.825 144.848 104.308 144.848 103.77V68.2145L154.288 58.0645H185.448C185.986 58.0645 186.503 58.2783 186.883 58.659C187.264 59.0397 187.478 59.5561 187.478 60.0945V103.841C187.46 104.367 187.238 104.865 186.859 105.231C186.48 105.596 185.974 105.8 185.448 105.8Z" fill="#8D8A94"/>
<path d="M185.448 106.815H146.878C146.07 106.815 145.296 106.494 144.725 105.923C144.154 105.352 143.833 104.578 143.833 103.77V68.2146C143.834 67.9581 143.932 67.7115 144.107 67.5244L153.536 57.3744C153.631 57.2723 153.746 57.1908 153.873 57.1349C154.001 57.0791 154.138 57.05 154.277 57.0496H185.438C186.245 57.0496 187.02 57.3704 187.591 57.9414C188.162 58.5125 188.483 59.287 188.483 60.0946V103.841C188.464 104.635 188.137 105.389 187.57 105.945C187.003 106.5 186.242 106.813 185.448 106.815V106.815ZM145.863 68.6206V103.811C145.863 104.08 145.97 104.338 146.16 104.528C146.351 104.719 146.609 104.826 146.878 104.826H185.448C185.717 104.826 185.975 104.719 186.166 104.528C186.356 104.338 186.463 104.08 186.463 103.811V60.0641C186.463 59.7949 186.356 59.5367 186.166 59.3464C185.975 59.156 185.717 59.0491 185.448 59.0491H154.734L145.863 68.6206Z" fill="#093F68"/>
<path d="M144.858 68.2146H154.145V58.0747L144.858 68.2146Z" fill="#F7F7F7"/>
<path d="M154.145 69.2296H144.858C144.663 69.2272 144.472 69.1685 144.31 69.0606C144.147 68.9527 144.019 68.8001 143.941 68.6212C143.862 68.4423 143.837 68.2446 143.869 68.0518C143.9 67.8591 143.986 67.6795 144.117 67.5345L153.404 57.3845C153.543 57.2361 153.724 57.1329 153.922 57.0881C154.12 57.0434 154.327 57.0592 154.517 57.1336C154.706 57.208 154.868 57.3374 154.983 57.5052C155.098 57.673 155.16 57.8714 155.16 58.0747V68.2247C155.158 68.4922 155.05 68.7477 154.86 68.9359C154.669 69.1241 154.413 69.2296 154.145 69.2296V69.2296ZM147.172 67.1996H153.13V60.6833L147.172 67.1996Z" fill="#093F68"/>
<path d="M179.723 76.8015H152.867C152.597 76.8015 152.339 76.6945 152.149 76.5042C151.958 76.3138 151.852 76.0557 151.852 75.7865C151.852 75.5173 151.958 75.2591 152.149 75.0688C152.339 74.8784 152.597 74.7715 152.867 74.7715H179.723C179.993 74.7715 180.251 74.8784 180.441 75.0688C180.631 75.2591 180.738 75.5173 180.738 75.7865C180.738 76.0557 180.631 76.3138 180.441 76.5042C180.251 76.6945 179.993 76.8015 179.723 76.8015Z" fill="white"/>
<path d="M179.723 83.4092H152.867C152.597 83.4092 152.339 83.3022 152.149 83.1119C151.958 82.9215 151.852 82.6633 151.852 82.3942C151.852 82.125 151.958 81.8668 152.149 81.6764C152.339 81.4861 152.597 81.3792 152.867 81.3792H179.723C179.993 81.3792 180.251 81.4861 180.441 81.6764C180.631 81.8668 180.738 82.125 180.738 82.3942C180.738 82.6633 180.631 82.9215 180.441 83.1119C180.251 83.3022 179.993 83.4092 179.723 83.4092Z" fill="white"/>
<path d="M179.723 90.0168H152.867C152.597 90.0168 152.339 89.9099 152.149 89.7195C151.958 89.5292 151.852 89.271 151.852 89.0018C151.852 88.7326 151.958 88.4745 152.149 88.2841C152.339 88.0938 152.597 87.9868 152.867 87.9868H179.723C179.993 87.9868 180.251 88.0938 180.441 88.2841C180.631 88.4745 180.738 88.7326 180.738 89.0018C180.738 89.271 180.631 89.5292 180.441 89.7195C180.251 89.9099 179.993 90.0168 179.723 90.0168Z" fill="white"/>
<path d="M172.05 96.6242H152.867C152.597 96.6242 152.339 96.5173 152.149 96.327C151.958 96.1366 151.852 95.8784 151.852 95.6092C151.852 95.34 151.958 95.0819 152.149 94.8915C152.339 94.7012 152.597 94.5942 152.867 94.5942H172.05C172.319 94.5942 172.577 94.7012 172.768 94.8915C172.958 95.0819 173.065 95.34 173.065 95.6092C173.065 95.8784 172.958 96.1366 172.768 96.327C172.577 96.5173 172.319 96.6242 172.05 96.6242Z" fill="white"/>
<path d="M180.312 98.8775H141.742C141.204 98.8775 140.687 98.6637 140.307 98.283C139.926 97.9023 139.712 97.3859 139.712 96.8475V61.2921L149.141 51.1421H180.302C180.84 51.1421 181.357 51.356 181.737 51.7367C182.118 52.1174 182.332 52.6337 182.332 53.1721V96.9186C182.314 97.4428 182.093 97.9396 181.716 98.3048C181.34 98.67 180.837 98.8752 180.312 98.8775Z" fill="#8D8A94"/>
<path d="M180.312 99.8926H141.742C140.935 99.8926 140.16 99.5718 139.589 99.0008C139.018 98.4297 138.697 97.6552 138.697 96.8476V61.2922C138.695 61.0371 138.789 60.7907 138.961 60.602L148.401 50.452C148.495 50.35 148.61 50.2685 148.737 50.2126C148.865 50.1567 149.002 50.1276 149.141 50.1272H180.302C181.11 50.1272 181.884 50.448 182.455 51.0191C183.026 51.5901 183.347 52.3646 183.347 53.1722V96.9187C183.328 97.7121 183.001 98.467 182.434 99.0225C181.867 99.578 181.106 99.8902 180.312 99.8926V99.8926ZM140.727 61.6982V96.8882C140.727 97.1574 140.834 97.4156 141.024 97.606C141.215 97.7963 141.473 97.9032 141.742 97.9032H180.312C180.581 97.9032 180.839 97.7963 181.03 97.606C181.22 97.4156 181.327 97.1574 181.327 96.8882V53.1417C181.327 52.8725 181.22 52.6144 181.03 52.424C180.839 52.2337 180.581 52.1267 180.312 52.1267H149.588L140.727 61.6982Z" fill="#093F68"/>
<path d="M139.722 61.2922H149.009V51.1523L139.722 61.2922Z" fill="#F7F7F7"/>
<path d="M149.01 62.3073H139.722C139.526 62.3068 139.334 62.2495 139.17 62.1424C139.006 62.0352 138.876 61.8828 138.797 61.7035C138.717 61.5242 138.691 61.3257 138.722 61.132C138.753 60.9384 138.84 60.7578 138.971 60.6122L148.258 50.4622C148.397 50.3101 148.578 50.2036 148.778 50.1567C148.978 50.1098 149.188 50.1247 149.379 50.1995C149.57 50.2743 149.735 50.4055 149.85 50.5756C149.965 50.7458 150.026 50.9469 150.025 51.1524V61.3024C150.022 61.5699 149.914 61.8254 149.724 62.0136C149.534 62.2017 149.277 62.3073 149.01 62.3073V62.3073ZM142.026 60.2773H147.995V53.761L142.026 60.2773Z" fill="#093F68"/>
<path d="M174.587 69.8791H147.69C147.421 69.8791 147.163 69.7722 146.972 69.5818C146.782 69.3915 146.675 69.1333 146.675 68.8641C146.675 68.5949 146.782 68.3368 146.972 68.1464C147.163 67.9561 147.421 67.8491 147.69 67.8491H174.587C174.857 67.8491 175.115 67.9561 175.305 68.1464C175.496 68.3368 175.602 68.5949 175.602 68.8641C175.602 69.1333 175.496 69.3915 175.305 69.5818C175.115 69.7722 174.857 69.8791 174.587 69.8791Z" fill="white"/>
<path d="M174.587 76.4868H147.69C147.421 76.4868 147.163 76.3799 146.972 76.1895C146.782 75.9992 146.675 75.741 146.675 75.4718C146.675 75.2026 146.782 74.9444 146.972 74.7541C147.163 74.5637 147.421 74.4568 147.69 74.4568H174.587C174.857 74.4568 175.115 74.5637 175.305 74.7541C175.496 74.9444 175.602 75.2026 175.602 75.4718C175.602 75.741 175.496 75.9992 175.305 76.1895C175.115 76.3799 174.857 76.4868 174.587 76.4868Z" fill="white"/>
<path d="M174.587 83.135H147.69C147.421 83.135 147.163 83.028 146.972 82.8377C146.782 82.6473 146.675 82.3892 146.675 82.12C146.675 81.8508 146.782 81.5926 146.972 81.4023C147.163 81.2119 147.421 81.105 147.69 81.105H174.587C174.857 81.105 175.115 81.2119 175.305 81.4023C175.496 81.5926 175.602 81.8508 175.602 82.12C175.602 82.3892 175.496 82.6473 175.305 82.8377C175.115 83.028 174.857 83.135 174.587 83.135Z" fill="white"/>
<path d="M166.863 89.7021H147.69C147.421 89.7021 147.163 89.5952 146.972 89.4048C146.782 89.2145 146.675 88.9563 146.675 88.6871C146.675 88.4179 146.782 88.1598 146.972 87.9694C147.163 87.7791 147.421 87.6721 147.69 87.6721H166.833C167.102 87.6721 167.36 87.7791 167.551 87.9694C167.741 88.1598 167.848 88.4179 167.848 88.6871C167.848 88.9563 167.741 89.2145 167.551 89.4048C167.36 89.5952 167.102 89.7021 166.833 89.7021H166.863Z" fill="white"/>
<path d="M175.166 91.9554H136.525C135.987 91.9554 135.47 91.7415 135.09 91.3608C134.709 90.9801 134.495 90.4638 134.495 89.9254V54.37L143.924 44.22H175.085C175.623 44.22 176.14 44.4338 176.52 44.8145C176.901 45.1952 177.115 45.7116 177.115 46.25V89.9965C177.097 90.5087 176.887 90.9953 176.525 91.3587C176.164 91.722 175.678 91.9352 175.166 91.9554Z" fill="white"/>
<path d="M175.166 92.9703H136.525C135.717 92.9703 134.943 92.6495 134.372 92.0784C133.801 91.5074 133.48 90.7329 133.48 89.9253V54.3698C133.478 54.1148 133.572 53.8684 133.744 53.6796L143.183 43.5296C143.278 43.4276 143.393 43.3461 143.52 43.2902C143.648 43.2343 143.785 43.2053 143.924 43.2048H175.085C175.892 43.2048 176.667 43.5256 177.238 44.0967C177.809 44.6677 178.13 45.4422 178.13 46.2498V89.9963C178.112 90.7777 177.794 91.5222 177.242 92.0758C176.691 92.6294 175.947 92.9496 175.166 92.9703V92.9703ZM135.581 54.7758V89.9659C135.581 90.2351 135.688 90.4932 135.878 90.6836C136.069 90.8739 136.327 90.9809 136.596 90.9809H175.166C175.435 90.9809 175.693 90.8739 175.884 90.6836C176.074 90.4932 176.181 90.2351 176.181 89.9659V46.2194C176.181 45.9502 176.074 45.692 175.884 45.5017C175.693 45.3113 175.435 45.2044 175.166 45.2044H144.442L135.581 54.7758Z" fill="#093F68"/>
<path d="M134.576 54.3698H143.863V44.23L134.576 54.3698Z" fill="#8D8A94"/>
<path d="M143.863 55.385H134.576C134.38 55.3845 134.188 55.3272 134.024 55.2201C133.86 55.1129 133.73 54.9605 133.651 54.7812C133.571 54.6018 133.545 54.4034 133.576 54.2097C133.607 54.016 133.694 53.8355 133.825 53.6899L143.112 43.5399C143.251 43.3902 143.432 43.2858 143.631 43.2406C143.831 43.1953 144.039 43.2112 144.229 43.2862C144.42 43.3598 144.584 43.4893 144.7 43.6577C144.816 43.8261 144.878 44.0256 144.878 44.2301V54.3801C144.876 54.6475 144.768 54.9031 144.578 55.0913C144.388 55.2794 144.131 55.385 143.863 55.385V55.385ZM136.88 53.355H142.848V46.8387L136.88 53.355Z" fill="#093F68"/>
<path d="M169.441 62.9568H142.615C142.346 62.9568 142.088 62.8498 141.897 62.6595C141.707 62.4691 141.6 62.211 141.6 61.9418C141.6 61.6726 141.707 61.4144 141.897 61.224C142.088 61.0337 142.346 60.9268 142.615 60.9268H169.482C169.751 60.9268 170.009 61.0337 170.2 61.224C170.39 61.4144 170.497 61.6726 170.497 61.9418C170.497 62.211 170.39 62.4691 170.2 62.6595C170.009 62.8498 169.751 62.9568 169.482 62.9568H169.441Z" fill="#DFEAEF"/>
<path d="M169.441 69.5644H142.615C142.346 69.5644 142.088 69.4575 141.897 69.2671C141.707 69.0768 141.6 68.8186 141.6 68.5494C141.6 68.2802 141.707 68.0221 141.897 67.8317C142.088 67.6414 142.346 67.5344 142.615 67.5344H169.482C169.751 67.5344 170.009 67.6414 170.2 67.8317C170.39 68.0221 170.497 68.2802 170.497 68.5494C170.497 68.8186 170.39 69.0768 170.2 69.2671C170.009 69.4575 169.751 69.5644 169.482 69.5644H169.441Z" fill="#DFEAEF"/>
<path d="M169.441 76.1721H142.615C142.346 76.1721 142.088 76.0652 141.897 75.8748C141.707 75.6845 141.6 75.4263 141.6 75.1571C141.6 74.8879 141.707 74.6297 141.897 74.4394C142.088 74.249 142.346 74.1421 142.615 74.1421H169.482C169.751 74.1421 170.009 74.249 170.2 74.4394C170.39 74.6297 170.497 74.8879 170.497 75.1571C170.497 75.4263 170.39 75.6845 170.2 75.8748C170.009 76.0652 169.751 76.1721 169.482 76.1721H169.441Z" fill="#DFEAEF"/>
<path d="M161.727 82.7798H142.615C142.346 82.7798 142.088 82.6728 141.897 82.4825C141.707 82.2921 141.6 82.034 141.6 81.7648C141.6 81.4956 141.707 81.2374 141.897 81.047C142.088 80.8567 142.346 80.7498 142.615 80.7498H161.768C162.037 80.7498 162.295 80.8567 162.486 81.047C162.676 81.2374 162.783 81.4956 162.783 81.7648C162.783 82.034 162.676 82.2921 162.486 82.4825C162.295 82.6728 162.037 82.7798 161.768 82.7798H161.727Z" fill="#DFEAEF"/>
<path d="M199.607 20.0527V24.265H1.26611V10.5117C1.26611 8.08896 2.22855 5.76543 3.94169 4.05229C5.65484 2.33914 7.97836 1.37671 10.4011 1.37671H82.8924C85.1499 1.38891 87.3216 2.2431 88.9824 3.77211L99.6602 13.5567H193.142C193.994 13.5554 194.838 13.7227 195.625 14.049C196.412 14.3754 197.126 14.8543 197.727 15.4582C198.328 16.0621 198.804 16.779 199.127 17.5675C199.449 18.3561 199.613 19.2007 199.607 20.0527V20.0527Z" fill="#3F8FFE"/>
<path d="M199.607 25.2801H1.2661C0.996904 25.2801 0.738734 25.1731 0.548384 24.9828C0.358035 24.7924 0.251099 24.5343 0.251099 24.2651V10.5118C0.251099 7.81988 1.32047 5.23819 3.22396 3.33469C5.12746 1.4312 7.70915 0.361825 10.4011 0.361825H82.8924C85.4226 0.35848 87.8614 1.30789 89.7233 3.02113L100.107 12.5418H193.192C195.173 12.5445 197.071 13.3324 198.472 14.7328C199.872 16.1332 200.66 18.0318 200.663 20.0122V24.2651C200.663 24.4019 200.635 24.5372 200.582 24.6631C200.528 24.789 200.45 24.9027 200.351 24.9975C200.253 25.0923 200.136 25.1662 200.008 25.2148C199.88 25.2633 199.744 25.2855 199.607 25.2801ZM2.2811 23.2501H198.592V20.0528C198.592 18.6099 198.019 17.2262 196.999 16.2059C195.979 15.1856 194.595 14.6124 193.152 14.6124H99.6704C99.4153 14.6143 99.1689 14.5201 98.9801 14.3485L88.3024 4.56392C86.8217 3.18773 84.8733 2.42578 82.8518 2.43243H10.3605C8.20694 2.43243 6.14159 3.28793 4.61879 4.81072C3.096 6.33352 2.2405 8.39887 2.2405 10.5524L2.2811 23.2501Z" fill="#093F68"/>
<path d="M61.08 121.197H30.3661C30.0969 121.197 29.8388 121.091 29.6484 120.9C29.4581 120.71 29.3511 120.452 29.3511 120.182C29.3511 119.913 29.4581 119.655 29.6484 119.465C29.8388 119.274 30.0969 119.167 30.3661 119.167H61.08C61.3492 119.167 61.6074 119.274 61.7977 119.465C61.9881 119.655 62.095 119.913 62.095 120.182C62.095 120.452 61.9881 120.71 61.7977 120.9C61.6074 121.091 61.3492 121.197 61.08 121.197Z" fill="#DFEAEF"/>
<path d="M119.402 121.197H88.688C88.4188 121.197 88.1607 121.091 87.9703 120.9C87.78 120.71 87.673 120.452 87.673 120.182C87.673 119.913 87.78 119.655 87.9703 119.465C88.1607 119.274 88.4188 119.167 88.688 119.167H119.402C119.671 119.167 119.929 119.274 120.12 119.465C120.31 119.655 120.417 119.913 120.417 120.182C120.417 120.452 120.31 120.71 120.12 120.9C119.929 121.091 119.671 121.197 119.402 121.197Z" fill="#DFEAEF"/>
<path d="M177.724 121.197H147.01C146.741 121.197 146.483 121.091 146.292 120.9C146.102 120.71 145.995 120.452 145.995 120.182C145.995 119.913 146.102 119.655 146.292 119.465C146.483 119.274 146.741 119.167 147.01 119.167H177.724C177.993 119.167 178.251 119.274 178.442 119.465C178.632 119.655 178.739 119.913 178.739 120.182C178.739 120.452 178.632 120.71 178.442 120.9C178.251 121.091 177.993 121.197 177.724 121.197V121.197Z" fill="#DFEAEF"/>
</g>
<defs>
<clipPath id="clip0_519_2">
<rect width="201" height="135" fill="white"/>
</clipPath>
</defs>
</svg>
